/* XPM */
static char *weekday_xpm[] = {
/* width height num_colors chars_per_pixel */
"    60    70      110            2",
/* colors */
".. c #c4c2b4",
".# c #c4c6bc",
".a c #9ca294",
".b c #a4a28d",
".c c #9c9e8e",
".d c #a4a69b",
".e c #a4a6a4",
".f c #4c4e44",
".g c #54524b",
".h c #b4b6aa",
".i c #9c9a8f",
".j c #acaea3",
".k c #74766a",
".l c #bcbcac",
".m c #9c9a84",
".n c #949288",
".o c #949684",
".p c #c4bebb",
".q c #1c1e18",
".r c #2c322c",
".s c #64665b",
".t c #4c4a43",
".u c #949a8c",
".v c #5c5b4b",
".w c #2c2e2b",
".x c #8c8a84",
".y c #444a44",
".z c #44423c",
".A c #3c3a2f",
".B c #545642",
".C c #847e79",
".D c #646258",
".E c #b4b2a4",
".F c #7c7c72",
".G c #545651",
".H c #848479",
".I c #646a5a",
".J c #bcbcb4",
".K c #4c4e38",
".L c #5c5c54",
".M c #b4b1ad",
".N c #8c8a79",
".O c #8c8e81",
".P c #7c8275",
".Q c #545a54",
".R c #6c6664",
".S c #645e5c",
".T c #747a70",
".U c #5c564f",
".V c #acaa9c",
".W c #343227",
".X c #444636",
".Y c #3c3e34",
".Z c #6c726a",
".0 c #94968f",
".1 c #1c2216",
".2 c #9ca2a0",
".3 c #848a7c",
".4 c #747267",
".5 c #5c625c",
".6 c #443e3c",
".7 c #6c6c68",
".8 c #242a20",
".9 c #3c4341",
"#. c #141a1a",
"## c #646a66",
"#a c #646664",
"#b c #6c6c5c",
"#c c #a4aa95",
"#d c #7c7674",
"#e c #8c9283",
"#f c #343a32",
"#g c #24261c",
"#h c #3c3634",
"#i c #746e6c",
"#j c #acb2a2",
"#k c #b4aea4",
"#l c #848a84",
"#m c #acafac",
"#n c #7c7c7c",
"#o c #343534",
"#p c #949a84",
"#q c #c4c7c5",
"#r c #bcbdb4",
"#s c #2c2e24",
"#t c #544e4c",
"#u c #bcbabc",
"#v c #a4a29c",
"#w c #444637",
"#x c #4c5653",
"#y c #4c4644",
"#z c #acaaa4",
"#A c #2c2a24",
"#B c #b4baa6",
"#C c #bcb6b2",
"#D c #848484",
"#E c #949289",
"#F c #5c5c4b",
"#G c #646259",
"#H c #8c9282",
"#I c #1c2217",
"#J c #3c4224",
"#K c #9c9e8d",
"#L c #949a8d",
"#M c #8c8a85",
"#N c #545652",
"#O c #7c8276",
"#P c #1c1d18",
"#Q c #242a21",
"#R c #2c3634",
/* pixels */
"...#.#.#.#.#...#.#.#.h.i.j...#...i.j...#.#.#.#...#...#.#.#...#.#.#...#.....#.#.#.#...#...#.#.#.....#...#.#.#.#.#...#.#.#",
".a.b.c.b.c.b.a.b.c.b.n.q.r.n.c.s.q.t.u.c.b.c.b.a.b.a.b.c.b.a.b.i.B.B.i.b.b#K.b#K.b.a.b.a.b#K.b.a.a.b.a.b.c.b.c.b.a.b.c.c",
"...#.#.#.#.#...#.#.#.h.A.B.C.j.B.B.D.j.E.F.G.F.E...F.H.v.I.J...V.f.f.7.j.0.L#F.s.M...0#F.w#F.F.o...#...#.#.#.#.#...#.#.#",
".b.a.b.c.b.a.b.a.b.c.n.q.v.W.s.W.X.z.N.Y.z.Z.z.Y.u.q.t.Z.W.g.i.H#o#f.B.F.s#G.Z.z.Y#L.Y.k#L.H#I.k.b.a.b.a.b.c.b.a.b.a.b.b",
"...#.#.#...#...#.#.#.h.A.N.f.K.4.5.5.V.Y.N.N.N.Y.b.A.3.x.D.5.E.b#G#G.N.j#E#G.g#w.K.V.K#N.a.R#N#E...#...#.#.#...#...#.#.#",
".a.b.c.d.c.e.a.b.c.d.n.q.Z.B.w.7.X.z.N.q.Z.0.7.q.k.q.Z.H.Y.X.N.3.9.z.P.i#Q.z.I.B.w.F.w.W#y#Q#F.H.a.b.a.b.c.d.c.e.a.b.c.c",
"...#.....#.....#.....h.A.N.x.N.x.5.D.d.B#b.l.4.f.O.A.N.V.5.D#c.V#G#F#c.#.A.H.N#a.K.i.i.i.4.z.K.N...#...#.....#.....#....",
".b.c.e.a.b.a.b.c.e.a.o.q.Z#e.N.P.X.z.N.v.w.w.w.L.P.q.4.3.X.z.x.O#G.8.w.T#w#g.w#o.w.F#H#H.Z#g.f.F.b.c.b.c.e.a.b.a.b.c.e.e",
".#.#.....#...#.#.....h.N.0.#.#.j.N.3#j.x.N.N.N.x.h.N.0#k.N#l.E.l.O.N.N.b#M.N.N.N.N#v.z.C.C.z.3.j.#.#.#.#.....#...#.#....",
".b.a.b.c.e.a.b.a.b.c.n.H.n.b.a.c.O#e.i.n.P.F.H.n.c.3.n.c.O#e.u.c#E.H.P#E#l.F.F#O.H#L#p#o#w.4#K.a.b.a.b.a.b.c.e.a.b.a.b.b",
".#...#...#.#.#.V.i.i.i.i.V.#.#.c...#...#.#.#.....#.#.#...#.#...#.#.#.#.#...#.....#.#.#.#...#...#.#.#...#...#...#...#.#..",
".a.b.c.d.c.b.b.3.X.9.9.9.s.b.b.W.O.b.a.b.c.b.a.a.b.c.b.a.b.b.a.b.c.b.i.B.B.i.b.b#K.b#K.b.a.b.a.b#K.b.a.c.e.a.b.c.d.c.c.e",
".#.#.#...#.#...V.L.D#c.x.D.x.##G.d.J.F.Q.R.E...F.H.v.I.J...c.S.Q.F.l.V.f.f.7.j.0.L#F.s.M...0#F.w#F.F.o.#.#.#.#.#...#.#.#",
".b.c.b.a.b.b.a.N.X.X.x.c.9.X.b.q.F.X.z.4.K.r.0.q.t.Z.W.g.i.1.v.I.z.O.H#o#f.B.F.s#G.Z.z.Y#L.Y.k#L.H#I.k.b.c.b.c.b.a.b.b.c",
".#.#.#...#.#.#.V.D.D.V.#.D.D.#.A#H.Y.5.D.5.A.c.A.3.x.D.5.E.z.v.4.H.j.b#G#G.N.j#E#G.g#w.K.V.K#N.a.R#N#E.#.#.#.#.#...#.#.#",
".c.b.a.b.a.c.b.3.X.9.N.c.9.X.b.q.4.q.B.B.B.B.F.q.Z.H.Y.X.N##.X.W.1.H.3.9.z.P.i#Q.z.I.B.w.F.w.W#y#Q#F.H.a.b.c.b.a.b.a.a.b",
".#...#...#.#...V.L.D#c.x.D.x.#.A.N.t.D.x.x#d.V.A.N.V.5.D#c.4.N.x.X.k.V#G#F#c.#.A.H.N#a.K.i.i.i.4.z.K.N.#.#.#...#...#.#.#",
".d.c.e.a.b.b.a.N.X.X.9.9.s.b.b#..4#b.r#g.8.W#e.q.4.3.X.z.x.W.8.8.Y.4.O#G.8.w.T#w#g.w#o.w.F#H#H.Z#g.f.F.b.c.d.c.e.a.b.b.c",
"...#.....#.#..#m.x.N.x.x.j.#.#.N.u.O.x.N.x.3.j.N.0#k.N#l.E.N.x.N.x.a.l.O.N.N.b#M.N.N.N.N#v.z.C.C.z.3.j.#.....#.....#.#..",
".a.b.a.b.c.b.a.c.O#e.i.i.b.a.a.H.o.i.H.T.F.H.i.3.n.c.O#e.u.H.T.F.3.i.c#E.H.P#E#l.F.F#O.H#L#p#o#w.4#K.a.c.e.a.b.a.b.c.c.e",
".#.#...#.#...#.h.i.j...#...i.j.h.c...#.#...#.#.#...#...#.#...#...#.#.#...#...#.#.#...#...#.#.#...c.#.#.#...#.#...#.#...#",
".a.c.d.c.c.e.a.n.q.r.n.c.s.q.t.n.W.O.i.B.B.i.i.B.B.i.O.c.b.a.b.a.b.c.b.O.a.b#K.b.a.b.a.b#K.b.a.b.q.b.c.b.a.b.c.d.c.c.e.a",
".#.#...#.#.#.#.h.A.B.C.j.B.B.D.h#G.d.V.f.f.7.V.f.f.7.v.D#c.D.K.S.j.D.v.b.E.F.G.F.E.J.E.F.G.F.E.J.A.H.v.I.J...#...#.#.#.#",
".b.b.a.b.b.c.c.n.q.v.W.s.W.X.z.n.q.F.H#o#f.B.H#o#f.B.G#s.4.W.G#s.k.W.f.H.Y.z.Z.z.Y.o.Y.z.Z.z.Y.o.q.t.Z.W.g.i.b.a.b.b.c.b",
".#.#...#.#.#.#.h.A.N.f.K.4.5.5.h.A#H.b#G#G.N.b#G#G.N.x.Y.O#w.x.y.N.Y.x.E.Y.N.N.N.Y.V.Y.N.N.N.N.V.A.3.x.D.5.E.#...#.#.#.#",
".c.a.b.a.a.b.c.n.q.Z.B.w.7.X.z.n.q.4.3.9.z.P.3.9.z.P.4#s.t#f.4#f.f#s.Z.c.q.Z.0.7.q.3.q.Z.0.3.b.3.q.Z.H.Y.X.N.a.b.a.a.b.c",
".#.#...#.#.#.#.h.A.N.x.N.x.5.D.h.A.N.V#G#F#c.V#G#F#c.i.5.z.s.N.s#y.D.i.#.B#b.l.4.f#c.B#b.l.4.f#c.A.N.V.5.D#c.#...#.#.#.#",
".d.e.a.b.b.c.a.o.q.Z#e.N.P.X.z.0#..4.O#G.8.w.O#G.8.w.N.v.q.D.F.D.q.B.3.a.v.w.w.w.L.N.v.w.w.w.L.N.q.4.3.X.z.x.e.a.b.b.c.d",
".......#.#...#.h.N.0.#.#.j.N.3.h.N.u.l.O.N.N.l.O.N.N#B.x.N.3.E.3.N.3#C...x.N.N.N.x.j.x.N.N.N.x.j.N.0#k.N#l.E.....#.#....",
".a.a.b.c.c.e.b.n.H.n.b.a.c.O#e.n.H.o.c#E.H.P.c#E.H.P.c#e.H.n.c#e.H.O.c.a.n.P.F.H.n#K.n.P.F.H.n#K.3.n.c.O#e.u.a.b.c.c.e.a",
".#.V.i.i.i.i.V.#...#...#.#.#...#...#.#.#...#...#.#.#...#.#...#...#...#.#.#...#...#.#.#.#...#.....#.#.#.#...#...#.#.#...#",
".c.3.X.9.9.9.s.b.b.a.b#K.b.a.b.a.b#K.b.a.b.a.b#K.b.a.b.c.b.a.b.a.a.b.c.b.a.b.a.b.c.b.i.B.B.i.b.b#K.b#K.b.a.b.a.b#K.b.a.c",
".#.V.L.D#c.x.D.x...E.F.G.F.E.J.F.H#F.s.J...F.H#F.s.J..#r.F.U.s.E.p.F.d.F.V.c.S.Q.F.l.V.f.f.7.j.0.L#F.s.M...0#F.w#F.F.o.#",
".b.N.X.X.x.c.9.X.b.Y.z.Z.z.Y.o#P.t.Z.W.g#K#P.t.Z.W.g#K#w.9.4.f#s.o.q#s#w.k.1.v.I.z#e.H#o#f.B.F.s#G.Z.z.Y#L.Y.k#L.H#I.k.a",
".#.V.D.D.V.#.D.D...Y.N.N.N.Y.V.A.N#M.5#G#j.A.N#M.5#G#j.Y.D.D.D.Y.V.A.N.x.d.z.v.4.H.j.b#G#G.N.j#E#G.g#w.K.V.K#N.a.R#N#E.#",
".c.3.X.9.N.c.9.X.2.q.Z.0.7.q.3#P.Z#O#w.z.N#P.Z#O#w.z.N.q.B#x.g.B.N.q.Z.N.0.I#w.W.1.H.3.9.z.P.i#Q.z.I.B.w.F.w.W#y#Q#F.H.b",
"...V.L.D#c.x.D.x.#.B#b.l.4.f#c.A.N.V#G.5.V.A.N.V#G.5.V.t.5.N.N.T#c.A.N.#.#.4.x.N#w.k.V#G#F#c.#.A.H.N#a.K.i.i.i.4.z.K.N.#",
".e.N.X.X.9.9.s.b.a.v.w.w.w.L.N#P.4.3.z.z.3#P.4.3.z.z.3.I.W#A.8.W.3.q.Z.b.a.W.8.8.Y.4.O#G.8.w.T#w#g.w#o.w.F#H#H.Z#g.f.F.c",
"..#m.x.N.x.x.j.#...x.N.N.N.x.j.N.0#j.N.N#j.N.0#j.N.N#j.n.N.3.N.x.E.N.0...#.N.x.N.x.c.l.O.N.N.b#M.N.N.N.N#v.z.C.C.z.3.j.#",
".b.c.O#e.i.i.b.a.a.n.P.F.H.n#K.H.o.i#H#H.i.H.o.i#H#H.i.0.H.F.F.H.u.3.n.b.a.H.T.F.3.c.c#E.H.P#E#l.F.F#O.H#L#p#o#w.4#K.a.c",
"...#.#.#.#.#...#.#.##q...#.h.i#E.o.o.j.#...#...#.#...#...#.c...#.#...#.....#.#.#.#...#...#.#.#.....#.#.#...#.#.#.#.#...#",
".a.b.c.b.c.b.a.b.c.b.c.c.b#E.q#w.z#y.s.a.b.a.b.c.b.a.b.a.b.W.O.i.B.B.i.b.b#K.b#K.b.a.b.a.b#K.b.a.a.b.c.b.a.b.c.b.c.b.a.b",
"...#.#.#.#.#...#.#.#.#.#.#.h.A.3.N.N.c.C.b.F.j#r.F.U.s.E.##G.d.V.f.f.7.j.0.L#F.s.M...0#F.w#F.F.o.#.#.#.#...#.#.#.#.#...#",
".b.a.b.c.b.a.b.a.b.c.b.b.a#E.q.B.L#G#H.q.w#w.k#w.9.4.f#s.o.q.F.H#o#f.B.F.s#G.Z.z.Y#L.Y.k#L.H#I.k.b.b.a.a.b.a.b.c.b.a.b.a",
"...#.#.#...#...#.#.#.....#.h.A.L#G#b.h.A.N.3.d.Y.D.D.D.Y.c.A#H.b#G#G.N.j#E#G.g#w.K.V.K#N.a.R#N#E.#...#.#...#.#.#...#...#",
".a.b.c.d.c.e.a.b.c.d.c.c.e#E.q.4.Z.k#E.q.Z.N.o.q.B#x.g.B.F.q.4.3.9.z.P.i#Q.z.I.B.w.F.w.W#y#Q#F.H.c.a.b.e.a.b.c.d.c.e.a.b",
"...#.....#.....#.....#.#...h.A.3.V.j.l.A.N.#.#.t.5.N.N.T.V.A.N.V#G#F#c.#.A.H.N#a.K.i.i.i.4.z.K.N.h.#.#.....#.....#.....#",
".b.c.e.a.b.a.b.c.e.a.b.b.a.o.q#i.a.b.a.q.Z.a.b.I.W#A.8.W#e#..4.O#G.8.w.T#w#g.w#o.w.F#H#H.Z#g.f.F#K.b.c.a.b.c.e.a.b.a.b.c",
".#.#.....#...#.#.....#.#...h.N.0.#.#.#.N.0.#.#.n.N.3.N.x.j.N.u.l.O.N.N.b#M.N.N.N.N#v.z.C.C.z.3.j.#.#.#...#.#.....#...#.#",
".b.a.b.c.e.a.b.a.b.c.e.e.a#E.H.o.c.b.c.N#E.a.b.0.H.F.F.H.u.H.o.c#E.H.P#E#l.F.F#O.H#L#p#o#w.4#K.a.a.b.c.a.b.a.b.c.e.a.b.a",
".#.h.p.O#d.F.a.....#...#.#.#...#...#.#.#...#...#.#.#.....#.#.#.#.#.B.#.#.#...#.#.#...#...#.#...#.#.#...#.#.#.#.B.u..#q..",
".a#E#w.w.B#w.w#b#K.a.b#K.b.a.b.a.b#K.b.a.b.a.b#K.b.a.b.b#K.b#K.b#E.q.b.c.b.a.b.c.b.a.b.a.b.a.b#K.b.a.b.a.b.c.b.q.b.a.b.a",
".#.h.A.O.N.N.N#E.J.E.F.G.F.E.J.F.H#F.s.J...F.H#F.s.J...0.L#F.s.M.h.5.F.G.F.E..#r.F.U.s.E.#.F.H#F.s.J..#r.F.G.F.5.O.#.#.#",
".b#E.w.w#N.k#O.O.m.Y.z.Z.z.Y.o#P.t.Z.W.g#K#P.t.Z.W.g#K.s#G.Z.z.Y#L.Y.z.Z.z.Y.u#w.9.4.f#s.o#P.t.Z.W.g#K.Y.z.Z.z.Y.u.b.c.b",
".#.h.H#G.B.z.f.j...Y.N.N.N.Y.V.A.N#M.5#G#j.A.N#M.5#G#j#E#G.g#w.K.V.Y.N.N.N.Y.b.Y.D.D.D.Y.c.A.N#M.5#G#j.Y.N.N.N.Y.b.#.#.#",
".c#E.T.4.Z.7.Y#w#L.q.Z.0.7.q.3#P.Z#O#w.z.N#P.Z#O#w.z.N#Q.z.I.B.w.F.q.Z.0.7.q.k.q.B#x.g.B.F#P.Z#O#w.z.N.q.Z.0.7.q.k.c.b.c",
".#.h.F.b#K.N.g.s.E.B#b.l.4.f#c.A.N.V#G.5.V.A.N.V#G.5.V.A.H.N#a.K.i.B#b.l.4.f.O.t.5.N.N.T.V.A.N.V#G.5.V.B#b.l.4.f.O.h.#..",
".d.o.W#g.W#Q.z.Z#E.v.w.w.w.L.N#P.4.3.z.z.3#P.4.3.z.z.3#w#g.w#o.w.F.v.w.w.w.L.P.I.W#A.8.W#e#P.4.3.z.z.3.v.w.w.w.L.P#K.d.c",
"...h#M.N.3.N.N.b.J.x.N.N.N.x.j.N.0#j.N.N#j.N.0#j.N.N#j#M.N.N.N.N#v.x.N.N.N.x.h.n.N.3.N.x.j.N.0#j.N.N#j.x.N.N.N.x.h.#...#",
".a#E.3.T.F.F.O.i.a.n.P.F.H.n#K.H.o.i#H#H.i.H.o.i#H#H.i#l.F.F#O.H#L.n.P.F.H.n.c.0.H.F.F.H.u.H.o.i#H#H.i.n.P.F.H.n.c.a.b.a",
"...#...#...#...#.h.p.O#d.F.a.....#...#.#.#...#...#.#.#...#...#.#.#...#.#...#.....#.#.#.#...#...#.#.#....#q..#q.#...#...#",
".d.c.e.a.b.c.e.a#E#w.w.B#w.w#b#K.a.b#K.b.a.b.a.b#K.b.a.b.a.b#K.b.a.b.i.B.B.i.b.b#K.b#K.b.a.b.a.b#K.b.a.a.b.a.b.c.d.c.e.a",
"...#.#.#.#.#...#.h.A.O.N.N.N#E.J.E.F.G.F.E.J.F.H#F.s.J...F.H#F.s.J...V.f.f.7.j.0.L#F.s.M...0#F.w#F.F.o.#.#.#.#.#...#.#.#",
".a.b.c.b.c.b.a.b#E.w.w#N.k#O.O.m.Y.z.Z.z.Y.o#P.t.Z.W.g#K#P.t.Z.W.g#K.H#o#f.B.F.s#G.Z.z.Y#L.Y.k#L.H#I.k.b.c.b.c.b.a.b.c.b",
"...#.#.#.#.#...#.h.H#G.B.z.f.j...Y.N.N.N.Y.V.A.N#M.5#G#j.A.N#M.5#G#j.b#G#G.N.j#E#G.g#w.K.V.K#N.a.R#N#E.#.#.#.#.#...#.#.#",
".b.a.b.c.b.a.b.c#E.T.4.Z.7.Y#w#L.q.Z.0.7.q.3#P.Z#O#w.z.N#P.Z#O#w.z.N.3.9.z.P.i#Q.z.I.B.w.F.w.W#y#Q#F.H.c.b.c.b.a.b.a.b.c",
"...#.#.#...#...#.h.F.b#K.N.g.s.E.B#b.l.4.f#c.A.N.V#G.5.V.A.N.V#G.5.V.V#G#F#c.#.A.H.N#a.K.i.i.i.4.z.K.N.h.#.....#...#.#.#",
".a.b.c.d.c.e.a.d.o.W#g.W#Q.z.Z#E.v.w.w.w.L.N#P.4.3.z.z.3#P.4.3.z.z.3.O#G.8.w.T#w#g.w#o.w.F#H#H.Z#g.f.F#K.d.c.c.e.a.b.c.d",
"...#.....#.......h#M.N.3.N.N.b.J.x.N.N.N.x.j.N.0#j.N.N#j.N.0#j.N.N#j.l.O.N.N.b#M.N.N.N.N#v.z.C.C.z.3.j.#...#.#.....#....",
".b.c.e.a.b.a.b.a#E.3.T.F.F.O.i.a.n.P.F.H.n#K.H.o.i#H#H.i.H.o.i#H#H.i.c#E.H.P#E#l.F.F#O.H#L#p#o#w.4#K.a.a.b.a.b.a.b.c.e.a"
};
