/* XPM */
static char * clock_xpm[] = {
"64 64 277 2",
"  	c None",
". 	c #2E71CF",
"+ 	c #185DB2",
"@ 	c #2A6AC4",
"# 	c #4E8FDE",
"$ 	c #69A0DE",
"% 	c #669ADE",
"& 	c #5589DE",
"* 	c #436ADE",
"= 	c #2E51CF",
"- 	c #182BAB",
"; 	c #0E16A9",
"> 	c #1E11AA",
", 	c #2B1ABF",
"' 	c #3817BF",
") 	c #3210BB",
"! 	c #2C09BA",
"~ 	c #260CB7",
"{ 	c #5E4FDE",
"] 	c #08059E",
"^ 	c #161192",
"/ 	c #3224AF",
"( 	c #5044CF",
"_ 	c #3935AF",
": 	c #636FDE",
"< 	c #748FDE",
"[ 	c #78A2DE",
"} 	c #66A4DE",
"| 	c #3C68CF",
"1 	c #1F40B7",
"2 	c #1F2FAB",
"3 	c #1642B9",
"4 	c #2A74C3",
"5 	c #35A3DE",
"6 	c #58C1DE",
"7 	c #74DCDE",
"8 	c #6DD6DE",
"9 	c #51B4DE",
"0 	c #3C98DE",
"a 	c #2E7CCF",
"b 	c #1F60C1",
"c 	c #164AB9",
"d 	c #2748CF",
"e 	c #2642BF",
"f 	c #1F36AB",
"g 	c #2D45BF",
"h 	c #4A63DE",
"i 	c #1551B1",
"j 	c #03378B",
"k 	c #073A98",
"l 	c #265BC3",
"m 	c #2D62C3",
"n 	c #346DC7",
"o 	c #3465C7",
"p 	c #2451B9",
"q 	c #143AAA",
"r 	c #0828A9",
"s 	c #07128F",
"t 	c #020290",
"u 	c #1D08A2",
"v 	c #1D02A6",
"w 	c #17029E",
"x 	c #190290",
"y 	c #0F029E",
"z 	c #241AB7",
"A 	c #170C91",
"B 	c #02026F",
"C 	c #2F3DA6",
"D 	c #425DBF",
"E 	c #031F90",
"F 	c #071A96",
"G 	c #032592",
"H 	c #0354A0",
"I 	c #117CC3",
"J 	c #3599CF",
"K 	c #3191DA",
"L 	c #1D7ABD",
"M 	c #0957B1",
"N 	c #072D97",
"O 	c #112AA6",
"P 	c #1542A9",
"Q 	c #031571",
"R 	c #032B88",
"S 	c #033288",
"T 	c #133999",
"U 	c #0A2A8C",
"V 	c #FFFFFF",
"W 	c #0E0281",
"X 	c #04027D",
"Y 	c #0E028F",
"Z 	c #01015C",
"` 	c #112094",
" .	c #102D8A",
"..	c #0A318C",
"+.	c #073298",
"@.	c #04107F",
"#.	c #034D97",
"$.	c #0A62AA",
"%.	c #2684BF",
"&.	c #116AA9",
"*.	c #031D71",
"=.	c #050C8D",
"-.	c #183CBB",
";.	c #031784",
">.	c #030970",
",.	c #041D7F",
"'.	c #08025D",
").	c #101289",
"!.	c #10168A",
"~.	c #091C6E",
"{.	c #040A7E",
"].	c #1165A9",
"^.	c #1F7FBF",
"/.	c #0A6AAA",
"(.	c #2E3BCF",
"_.	c #0712AA",
":.	c #5A5241",
"<.	c #0E0B0B",
"[.	c #473B26",
"}.	c #181892",
"|.	c #08489B",
"1.	c #115BA6",
"2.	c #065CA3",
"3.	c #034096",
"4.	c #172098",
"5.	c #1E2CA6",
"6.	c #342CCF",
"7.	c #06089E",
"8.	c #03105A",
"9.	c #0A4199",
"0.	c #115FB3",
"a.	c #1925A8",
"b.	c #2530AA",
"c.	c #331EBF",
"d.	c #716E67",
"e.	c #144FA6",
"f.	c #116DBD",
"g.	c #186DC1",
"h.	c #0750AA",
"i.	c #18259B",
"j.	c #0A1886",
"k.	c #0A1E90",
"l.	c #1167BD",
"m.	c #03247E",
"n.	c #031070",
"o.	c #4113B7",
"p.	c #240292",
"q.	c #0766B9",
"r.	c #065EB1",
"s.	c #4710B7",
"t.	c #2B039C",
"u.	c #111796",
"v.	c #0949A8",
"w.	c #0A58A5",
"x.	c #0641A6",
"y.	c #460CB3",
"z.	c #1B75BF",
"A.	c #1172AF",
"B.	c #0A4E9C",
"C.	c #1154A1",
"D.	c #0A70AF",
"E.	c #B7B5B0",
"F.	c #D4D2CE",
"G.	c #0F0B89",
"H.	c #0369A8",
"I.	c #0370AB",
"J.	c #1866B3",
"K.	c #410CC7",
"L.	c #F9F7F7",
"M.	c #998D77",
"N.	c #112596",
"O.	c #0363A8",
"P.	c #0379AF",
"Q.	c #3A13C7",
"R.	c #1105B7",
"S.	c #0303A9",
"T.	c #A3771B",
"U.	c #EEBA12",
"V.	c #BEA214",
"W.	c #8B5E07",
"X.	c #03155F",
"Y.	c #B38B27",
"Z.	c #EEC71C",
"`.	c #030CB7",
" +	c #D2980F",
".+	c #1147A5",
"++	c #1824C7",
"@+	c #272FD6",
"#+	c #111ABF",
"$+	c #03095B",
"%+	c #1F67AF",
"&+	c #186CB5",
"*+	c #3476C7",
"=+	c #1F5EB7",
"-+	c #1A55AD",
";+	c #224AAF",
">+	c #1A57B8",
",+	c #2663BF",
"'+	c #266FC3",
")+	c #0A378C",
"!+	c #11349D",
"~+	c #434CD6",
"{+	c #1A65C1",
"]+	c #1174BF",
"^+	c #086CB8",
"/+	c #4353CF",
"(+	c #4A5BCF",
"_+	c #5867DA",
":+	c #2636B2",
"<+	c #020145",
"[+	c #5F7BDE",
"}+	c #2D47AF",
"|+	c #4E7EDE",
"1+	c #3977DB",
"2+	c #4386DE",
"3+	c #000000",
"4+	c #343234",
"5+	c #2C2A2C",
"6+	c #242624",
"7+	c #24262C",
"8+	c #2C2E2C",
"9+	c #242224",
"0+	c #343634",
"a+	c #1C1E24",
"b+	c #8C8A8C",
"c+	c #3C3A3C",
"d+	c #949694",
"e+	c #949294",
"f+	c #3C3E3C",
"g+	c #4374DE",
"h+	c #24221C",
"i+	c #444244",
"j+	c #3C3A34",
"k+	c #34363C",
"l+	c #8C8E8C",
"m+	c #2D4AC7",
"n+	c #1F3BB9",
"o+	c #44423C",
"p+	c #3C3E44",
"q+	c #9C9E9C",
"r+	c #444644",
"s+	c #2633BF",
"t+	c #9C9A9C",
"u+	c #7456DE",
"v+	c #2C2E34",
"w+	c #441FBB",
"x+	c #150280",
"y+	c #300C9E",
"z+	c #3F16AF",
"A+	c #848684",
"B+	c #848284",
"C+	c #7C7E7C",
"D+	c #A4A6A4",
"E+	c #B4B2B4",
"F+	c #B4B6B4",
"G+	c #ACAEAC",
"H+	c #020136",
"I+	c #4E36D6",
"J+	c #3B33CF",
"K+	c #0F0272",
"L+	c #2E38CF",
"M+	c #355ECF",
"N+	c #0A2592",
"O+	c #112C99",
"P+	c #0A31A6",
"Q+	c #203CAC",
"R+	c #1835AA",
"S+	c #2041AC",
"T+	c #182E9C",
"U+	c #6690DE",
"V+	c #244495",
"W+	c #102F84",
"X+	c #15429C",
"Y+	c #2B4B95",
"Z+	c #0A257E",
"`+	c #90B2DE",
" @	c #39599E",
". + @ # $ $ % & * = - ; > , ' ) ! ~ ! ~ ! ~ ! ~ ! ~ ! ~ ! ~ ! ~ { ] ^ / ( _ : < [ } $ # | 1 2 3 4 5 6 7 8 9 0 a b c 3 d e f g h ",
"i j k l m n o p q r s t ] u v v w w w w w w x y x w x w w w y y z t y A ^ B C D | n . b 3 E F G H I J 9 9 K L M k N r O r F F - ",
"P E Q R S T k U E V V V V V V W X X X X X X X X X X X X X X X X t X Y X B Z `  ...j k +.E @.X @.R #.$.%.%.&.#.R *.@.s s =.X B B ",
"-.;.>.;.,.N V V V V V V V V V V V B B B B '.B '.'.'.B '.B B B B X t X X B ).!.~.G R N R ;.{.X >.R #.].L ^./.#.S Q >.{.X s s {.B ",
"(._.X @.;.V V V V V V V V V V V V V B Z Z Z Z Z B Z Z Z B :.<.<.<.<.[.X B }.!.@.G G N G ;.{.B >.R |.1.4 L &.2.3.*.@.X {.4.5.` @.",
"6.7.X {.V V V V V V V V V V V V V V Z Z Z Z Z Z Z Z Z :.<.<.<.<.<.<.<.<.[.).{.@.;.E E E ;.>.X B 8.U 9.1.&.].0.3.,.@.{.).a.b.` >.",
"c.Y t V V V V V V V V V V V V V V V V Z B Z Z Z Z Z [.<.<.<.<.<.<.<.<.<.<.<.d.s @.;.E E @.>.B >.>.R j e.f.f.g.h.R ;.>.s }.i.j.>.",
") x V V V V V V V V V V V V V V V V V V Z B Z B Z [.<.<.<.<.<.<.<.<.<.:.:.<.<.d.=.F k.F @.X B B >.,.G |.l.g.f.h.S m.n.n.s ~.;.;.",
"o.p.V V V V V V V V V V V V V V V V V V B B B Z d.<.<.<.<.<.<.<.<.<.<.d.:.<.<.<.X s k.F s >.B B >.n.,.j M q.r.M 3.+.,.n.Q ;.,.R ",
"s.t.V V V V V V V V V V V V V V V V V V Z Z B Z [.<.<.<.<.<.<.<.<.<.<.<.<.<.<.<.:.s u.).{.B B B >.>.;.+.v.r.r.M w.|.S m.m.m.,.G ",
"s.V V V V V V V V V V V V V V V V V V V V Z Z Z [.<.<.<.<.<.<.<.<.<.<.<.<.<.<.<.<.s u.s {.B Z B B >.Q N x.h.M q.].1.|.j j S ,.,.",
"y.V V V V V V V V V V V V V V V V V V V V Z Z Z <.<.<.<.<.<.<.<.<.<.<.<.<.<.<.<.<.d.).s B B Z B >.>.@.G k x.h.r.z.A.2.B.C.9.R ,.",
"y.V V V V V V V V V V V V V V V V V V V V Z Z Z <.<.<.<.<.<.<.<.<.[.:.[.[.<.<.<.<.:.).{.B B B B >.>.@.G +.k v.2.D.A./.$.+ e.R Q ",
"y.V V V V V V V V V V V V V V V V V V V V V Z Z <.<.d.E.:.<.<.<.[.E.E.F.d.<.<.<.<.:.).G.>.B B >.>.>.n.` N +.3.H H.I.H.H.J.C.R n.",
"K.V V V V V V V V V V V V V V V V V V V V V B B <.[.F.E.L.[.<.<.F.L.M.F.F.<.<.<.<.[.).@.B B >.Z >.Z >.` N.U 3.H O.P.I.O.$.C.R n.",
"Q.V V V V V V V V V V V V V V V V V V V V V B B [.:.[.[.E.X <.<.L.:.<.:.L.[.<.<.<.[.).).>.B B B >.B B j.N.R 3.H H.P.I.H.2.|.R Q ",
"R.V V V V V V V V V V V V V V V V V V V V V V B [.:.[.<.d.B <.<.F.[.<.<.F.:.<.<.<.[.G.W X B X B B B >.j.U j #.O.I.I.I.O.H |.R ;.",
"S.V V V V V V V V V V V V V V V V V V V V V V B [.<.E.<.T.U.U.V.V.W.<.[.L.[.<.<.<.[.{.X X X X X G.{.>.X.R 3.2.D.I.I.I.O.2.|.S *.",
"S.S.V V V V V V V V V V V V V V V V V V V V V V [.<.M.Y.U.Z.Z.Z.Z.Z.U.@.G <.<.<.<.<.X X X X X X >.>.n.*.S #.$.O.I.I.H.2.w.h.j ,.",
"`.S.V V V V V V V V V V V V V V V V V V V V V V :.<.T. +U.Z.Z.Z.Z.Z.Z.Z.Z.<.<.<.<.<.{.X X X B B n.Q *.S .+].$.2.I.H.2.2.H e.j *.",
"++_.V V V V V V V V V V V V V V V V V V V V V V :.[.Y.U.U.Z.Z.Z.Z.Z.U. + +<.<.<.<.<.d.{.>.X B B Q *.R S |.].&./.A.D.O.2.w.e.S *.",
"@+#+V V V V V V V V V V V V V V V V V V V V V B :.<.W.U.U.Z.Z.Z.U.Y. + + +<.<.[.<.<.:.n.{.>.X $+m.S j B.C.%+%+].4 L &++ + e.j m.",
"++; 7.V V V V V V V V V V V V V V V V V V V V B :.<.M.W. +V.V.T.T. + +V.>.[.<.:.k <.<.,.;.,.m.R B.1.%+*+*+%+C.C.1.=++ -+e.;+..,.",
"_.7.t V V V V V V V V V V V V V V V V V V V B B d.<.E.M.T. + + +Y.Y.E.F.F.E.<.<.d.<.<.[.j .+>+,+'+'+'+@ e.)+S S j j )+)+T !+m.Q ",
"~+a.t t V V V V V V V V V V V V V V V V V V B B <.<.F.F.M.T.T.T.Y.X F.L.L.L.[.<.<.<.<.<.d.{+g.g.{+%+=+|.S m.*.X.Q Q Q ;.,.;.Q >.",
"~+a.t X V V V V V V V V V V V V V V V V V V Z :.<.[.L.F.E.E.E.E.E.F.L.L.L.L.E.<.<.<.<.<.[.]+]+]+0.b i ..,.n.@.{.>.{.>.>.n.@.>.B ",
"~+N.t X t V V V V V V V V V V V V V V V V B B <.<.F.L.L.E.E.E.F.L.L.L.L.L.L.L.[.<.<.<.<.<.d.^+^+M i P N @.>.B {.X B B X {.>.B Z ",
"/+i.{.X X X V V V V V V V V V V V V V V B B <.<.d.L.L.L.L.F.L.L.L.L.L.L.L.L.L.E.<.<.<.<.<.<.^+q.i P N ;.>.B X X X X X B B B B Z ",
"(+5.{.X X t X X V V V V V V V V V V V B B [.<.<.L.L.L.L.L.L.L.L.L.L.L.L.L.L.L.L.<.<.<.<.<.<.[.r.9.U Q >.B X B B X B B B B B Z Z ",
"_+:+@.X X X X X B V V V V V V V V V B B :.<.<.:.L.L.L.L.L.L.L.L.L.L.L.L.L.L.L.L.[.<.<.<.<.<.<.[.S ,.>.>.X B X B X X B B B Z Z Z ",
": C j.>.X X X X B B B V V V V V X B B d.<.<.<.B F.L.L.L.L.L.L.L.L.L.L.F.F.F.F.F.M.<.<.<.<.<.<.<.d.Q >.>.>.X B X B B B Z Z Z <+Z ",
"[+}+;.{.X X X X X B B B X X X X X B B [.<.<.<.E.F.L.L.L.L.L.L.L.L.L.L.L.F.F.F.E.L.[.<.<.<.<.<.<.<.n.>.>.B B B B B B B B Z Z Z <+",
"|+p ,.n.@.X X X X X X X X X X X B B B <.<.<.[.F.L.L.L.L.L.L.L.L.L.L.L.L.L.L.L.F.F.M.<.<.<.<.<.<.<.d.B B B B B X B B B B Z Z <+<+",
"1+i m.;.;.{.{.X X X B X X B X X B B :.<.<.<.E.L.L.L.L.L.L.L.L.L.L.L.L.L.L.L.L.L.L.F.<.<.<.<.<.<.<.<.X B B B B B B B B B B Z Z <+",
"2+b R m.G @.@.{.s X X X X B X B X B <.<.<.:.L.L.L.L.L.L.L.L.L.L.L.L.L.L.L.L.L.L.L.L.^+<.[.<.<.<.<.<.d.B B B B B X B B B Z Z <+<+",
"# @ j N 3+3+3+3+3+3+3+3+3+3+3+3+3+3+3+3+3+3+3+3+3+3+3+3+3+3+3+3+3+3+3+3+3+3+3+3+3+3+3+3+3+3+3+3+3+3+3+3+3+3+3+3+3+3+3+3+Z Z Z <+",
"2+{++.k 3+4+4+5+6+7+5+5+5+8+4+8+8+5+5+6+5+5+8+5+8+4+4+8+4+8+6+6+5+7+9+8+5+8+4+5+5+5+8+4+8+0+8+4+4+8+a+8+4+8+8+4+8+4+0+b+Z Z <+<+",
"1+>++.k 3+8+8+6+5+5+6+6+8+5+4+8+4+5+5+6+9+9+6+4+5+4+8+0+4+4+5+8+4+8+6+5+4+8+4+8+6+8+4+4+0+4+0+0+0+4+6+5+8+4+4+8+c+4+8+d+Z Z <+<+",
"1+>+R +.3+6+6+4+5+8+5+6+5+8+8+8+5+5+5+6+8+6+6+6+4+8+0+0+8+5+0+4+0+4+4+5+0+0+4+4+0+5+4+4+4+8+c+0+8+5+5+8+4+4+8+0+4+c+4+e+Z Z <+<+",
"& ,+N R 3+6+6+8+5+5+5+5+5+5+5+6+6+8+8+4+5+4+5+4+0+4+4+0+8+5+f+4+0+4+0+5+0+4+0+4+8+6+0+4+0+0+4+8+4+5+8+0+0+0+8+c+0+0+0+e+Z Z <+<+",
"g+P ,.,.3+h+h+5+8+6+5+8+8+5+6+8+4+4+8+8+8+8+8+4+0+0+0+c+0+4+4+0+0+0+0+5+0+4+8+4+8+5+4+0+0+4+4+0+8+4+4+4+0+4+4+4+c+c+f+e+Z <+<+<+",
"d N ;.@.3+6+6+5+5+5+6+8+8+5+5+4+8+4+4+8+4+8+8+8+4+0+c+4+0+4+0+0+0+c+4+8+5+8+4+4+0+6+4+8+0+4+8+4+0+f+0+0+4+4+0+5+0+0+0+e+Z Z <+<+",
"1 E >.{.3+9+9+5+8+5+8+5+5+6+5+8+4+4+0+0+4+8+c+0+0+4+4+0+0+8+4+c+0+0+4+8+5+4+4+8+5+8+4+8+4+0+i+4+j+k+j+c+f+j+4+8+4+4+c+l+Z Z <+<+",
"m+E {.B 3+5+5+6+6+5+5+6+8+5+5+5+8+0+4+0+4+0+c+c+i+0+0+0+c+8+4+0+c+c+0+8+8+6+8+8+4+8+5+5+8+0+0+4+4+c+c+0+c+k+0+4+8+c+0+d+Z Z <+<+",
"n+;.X X 3+6+6+9+6+6+8+8+5+8+0+8+5+5+5+4+5+c+f+f+c+f+c+c+c+c+0+0+4+4+8+4+8+5+8+4+c+0+5+5+8+8+4+4+4+0+j+k+c+j+f+0+4+c+f+d+Z Z <+<+",
"E {.X {.3+6+6+5+6+5+4+8+4+4+8+0+8+8+4+0+j+4+k+c+j+c+k+o+0+4+0+c+4+0+0+8+5+5+4+0+4+0+4+6+0+j+4+0+0+4+k+o+i+p+c+f+8+f+i+q+Z Z Z <+",
"-.F =.{.3+6+6+5+6+5+5+4+8+0+4+4+8+4+4+k+f+c+4+4+c+c+f+i+p+0+0+c+0+0+4+5+5+8+8+4+0+4+8+5+4+8+k+4+f+4+c+r+f+i+o+c+4+f+c+d+B Z <+<+",
"_+s+=.X 3+5+5+9+6+8+6+8+4+4+4+8+0+4+0+j+c+0+0+8+8+c+c+f+j+4+4+0+4+8+6+4+8+8+4+8+c+4+5+5+8+0+j+0+f+0+f+c+f+f+i+f+0+i+0+t+Z Z Z <+",
"u+/ X X 3+6+6+6+5+5+4+8+5+8+8+4+0+4+f+k+f+c+8+4+4+0+f+0+4+v+c+0+c+0+4+0+c+0+4+0+0+4+6+8+4+4+c+k+c+c+i+p+j+p+i+f+0+c+c+t+B Z Z <+",
"w+t.x+t 3+5+5+5+6+5+8+8+4+8+5+4+4+0+0+f+c+4+0+c+c+c+8+8+4+0+0+f+f+c+4+0+c+0+c+4+0+8+5+5+8+0+c+0+0+f+c+f+c+i+r+c+c+f+f+d+B Z Z <+",
"y+p.x+W 3+5+5+5+6+5+5+8+8+8+8+8+4+8+8+5+8+8+0+c+f+0+c+4+0+c+0+f+i+f+4+4+0+c+0+0+8+4+8+5+8+4+4+4+8+c+o+c+0+i+c+f+8+c+i+e+'.'.<+<+",
"z+p.W X 3+6+6+8+9+5+5+8+4+8+5+4+4+8+j+k+4+5+4+0+c+c+0+j+4+0+4+o+c+f+c+8+4+0+0+8+4+4+8+0+5+0+0+j+k+f+c+f+4+c+f+0+4+0+8+e+'.Z <+<+",
"w+x X W 3+A+B+C+C+B+A+B+B+l+b+b+e+l+b+A+B+A+A+A+A+t+D+E+F+F+F+F+G+q+e+t+d+l+A+B+A+A+b+A+b+e+l+e+d+d+d+d+d+e+l+e+e+e+G+G+Z '.<+H+",
"I+u X W X B B '.M. +U.U.U.U.U.U.U.U.Z.U.U.U.U.U.U.F.L.L.L.L.L.L.L.L.L.L.L.E.<.<.:. +U.U.Z.U.U.U.U.U.U.U.Z.U.Z.U.N.!.B Z Z <+<+H+",
"J+> X X B B B K+M. +U.U.U.U.U.U.U.U.U.U.U.U.Z.U.U.T.L.L.L.L.L.L.L.L.L.L.d.<.<.<.W. +U.U.U.Z.U.U.U.Z.U.U.U.U.U.Y.a.j.{.Z Z <+<+H+",
"7.t t t X X X Z  + +U.U.U.U.U.U.U.Z.U.U.U.U.U.U.U.T.[.Z F.F.F.E.M.d.[.<.<.<.<.<.W. +U.U.U.U.U.U.U.U.U.U.U. +M.` i.u.@.B Z <+H+H+",
"L+; X X X B B B  + + + +U.U.U.U.U.U.U.U.Z.U.U.U. +T.[.<.<.<.<.<.<.<.<.<.<.<.<.<.W. +U.U.Z.U.U.U.U.U.U.Y.M.X {.s ` F n.>.Z <+<+<+",
"n+F t X X X X B M.T.T.Y. + + + + + +U.U.U.U.U.U. +T.:.<.<.<.<.<.<.<.<.<.<.<.<.<.W.Y. +U.U.U.U.U. +Y.d.B B B {.s N.j.{.Z Z <+<+H+",
"e E {.X X B X B >.;.E d.d.T.T.T.T.T.Y. + + + +Y.T.W.[.<.<.<.[.[.[.[.[.[.[.[.<.<.:.T.Y. + + + +Y.W.d.B B B B B {.a.k.@.B Z <+<+<+",
"M+N {.{.B B {.{.@.N+O+P+G G E d.d.W.W.T.T.T.T.W.W.[.[.d.B B B B B B B B X >.;.!+[.W.T.T.T.T.T.W.M.Z Z Z Z Z B >.a.k.Q n.$+$+<+H+",
"|+Q+Q n.>.>.@.k.N.R+S+q !+N+;.n.>.B d.:.W.W.W.W.[.:.'.B '.B B Z '.'.K+'.B B n. .:.[.W.W.W.W.:.B Z Z Z Z Z Z B n.T+N.,.n.8.<+<+H+",
"U+V+8.Z $+>.@.` :+Q+S+T T+~.n.$+Z Z Z Z K+'.'.'.Z '.Z Z Z Z <+Z Z $+'.'.'.Z >.~.W+T X+X+ .n.B Z Z <+<+'.Z <+>.8.T+N.,.Q $+<+<+H+",
"[ Y+8.$+<+Z n.!.T+ .k.~.;.8.<+<+<+<+<+<+<+<+<+<+<+<+<+H+<+H+<+H+<+<+Z Z Z Z <+8.X.R Z+W+~.$+B Z <+<+<+<+<+<+Z $+Q *.*.X.$+H+H+H+",
"`+ @8.$+$+Z >.n.;.>.Z $+Z <+<+<+<+<+<+<+H+<+H+<+H+H+H+H+H+H+H+H+<+<+<+<+<+Z <+$+H+8.8.X.>.<+Z Z <+<+H+<+<+<+<+Z $+8.*.*.X.<+H+H+"};
