/* XPM */
static char *date_xpm[] = {
/* width height num_colors chars_per_pixel */
"    80    10      194            2",
/* colors */
".. c #fefefe",
".# c #ffffff",
".a c #e8e8e8",
".b c #323232",
".c c #262626",
".d c #f8f8f8",
".e c #b0b0b0",
".f c #424242",
".g c #000000",
".h c #7a7a7a",
".i c #f0f0f0",
".j c #d8d8d8",
".k c #212121",
".l c #3a3a3a",
".m c #222222",
".n c #4f4f4f",
".o c #d6d6d6",
".p c #cbcbcb",
".q c #858585",
".r c #fdfdfd",
".s c #a6a6a6",
".t c #0e0e0e",
".u c #929292",
".v c #e3e3e3",
".w c #a9a9a9",
".x c #343434",
".y c #2e2e2e",
".z c #5c5c5c",
".A c #dedede",
".B c #313131",
".C c #e5e5e5",
".D c #f9f9f9",
".E c #b9b9b9",
".F c #525252",
".G c #3e3e3e",
".H c #9c9c9c",
".I c #f3f3f3",
".J c #0f0f0f",
".K c #101010",
".L c #656565",
".M c #d3d3d3",
".N c #121212",
".O c #272727",
".P c #131313",
".Q c #888888",
".R c #d1d1d1",
".S c #545454",
".T c #0a0a0a",
".U c #838383",
".V c #232323",
".W c #757575",
".X c #5a5a5a",
".Y c #868686",
".Z c #666666",
".0 c #c6c6c6",
".1 c #494949",
".2 c #e1e1e1",
".3 c #f6f6f6",
".4 c #787878",
".5 c #393939",
".6 c #989898",
".7 c #dbdbdb",
".8 c #484848",
".9 c #2f2f2f",
"#. c #717171",
"## c #575757",
"#a c #696969",
"#b c #373737",
"#c c #ededed",
"#d c #d0d0d0",
"#e c #303030",
"#f c #f2f2f2",
"#g c #161616",
"#h c #a2a2a2",
"#i c #dcdcdc",
"#j c #818181",
"#k c #9b9b9b",
"#l c #1a1a1a",
"#m c #585858",
"#n c #8f8f8f",
"#o c #171717",
"#p c #e2e2e2",
"#q c #e0e0e0",
"#r c #292929",
"#s c #282828",
"#t c #c8c8c8",
"#u c #1b1b1b",
"#v c #cccccc",
"#w c #e6e6e6",
"#x c #4d4d4d",
"#y c #5d5d5d",
"#z c #020202",
"#A c #eaeaea",
"#B c #242424",
"#C c #7b7b7b",
"#D c #565656",
"#E c #252525",
"#F c #ebebeb",
"#G c #bdbdbd",
"#H c #191919",
"#I c #a1a1a1",
"#J c #fcfcfc",
"#K c #b6b6b6",
"#L c #6e6e6e",
"#M c #efefef",
"#N c #c1c1c1",
"#O c #0d0d0d",
"#P c #333333",
"#Q c #d7d7d7",
"#R c #f1f1f1",
"#S c #454545",
"#T c #b3b3b3",
"#U c #8b8b8b",
"#V c #e4e4e4",
"#W c #3b3b3b",
"#X c #1e1e1e",
"#Y c #c9c9c9",
"#Z c #1c1c1c",
"#0 c #cecece",
"#1 c #fafafa",
"#2 c #bebebe",
"#3 c #383838",
"#4 c #bfbfbf",
"#5 c #e7e7e7",
"#6 c #898989",
"#7 c #bcbcbc",
"#8 c #2d2d2d",
"#9 c #ececec",
"a. c #595959",
"a# c #b1b1b1",
"aa c #070707",
"ab c #030303",
"ac c #1f1f1f",
"ad c #737373",
"ae c #f7f7f7",
"af c #5f5f5f",
"ag c #999999",
"ah c #cacaca",
"ai c #0c0c0c",
"aj c #010101",
"ak c #626262",
"al c #dddddd",
"am c #151515",
"an c #a3a3a3",
"ao c #3d3d3d",
"ap c #636363",
"aq c #c3c3c3",
"ar c #141414",
"as c #7c7c7c",
"at c #5b5b5b",
"au c #f4f4f4",
"av c #7e7e7e",
"aw c #dadada",
"ax c #a0a0a0",
"ay c #959595",
"az c #050505",
"aA c #c4c4c4",
"aB c #606060",
"aC c #474747",
"aD c #d2d2d2",
"aE c #686868",
"aF c #8a8a8a",
"aG c #c2c2c2",
"aH c #eeeeee",
"aI c #414141",
"aJ c #aaaaaa",
"aK c #919191",
"aL c #363636",
"aM c #2b2b2b",
"aN c #797979",
"aO c #dfdfdf",
"aP c #181818",
"aQ c #bbbbbb",
"aR c #c7c7c7",
"aS c #4e4e4e",
"aT c #434343",
"aU c #cdcdcd",
"aV c #8e8e8e",
"aW c #040404",
"aX c #535353",
"aY c #acacac",
"aZ c #747474",
"a0 c #e9e9e9",
"a1 c #b4b4b4",
"a2 c #9a9a9a",
"a3 c #fbfbfb",
"a4 c #b2b2b2",
"a5 c #202020",
"a6 c #6a6a6a",
"a7 c #090909",
"a8 c #0b0b0b",
"a9 c #404040",
"b. c #a5a5a5",
"b# c #5e5e5e",
/* pixels */
"...M.N.O.P.Q.d.....#.a.b.c.......d.e.f.g.h.i.#...j.k.l.m.n.o.....#.#.#.p.g.q.....r.s.g.g.g.t.u.......v.w.x.y.z...A.B.g.g.g.g.C...D.E.F.G.H.I.......H.J.K.L.p....",
"...f#m.R#n#o#p.....R.S.T.c.......U.V.W.X.J.Y.#...X.Z.#.0.y.1.r...#.#.2.S.g.q.....3.4.5.W.W.6.......7.8.9.W.2....#.##.W#a.c#b#c..#d#e.w#f#g#h....#i.J#j#k#l.m.C..",
".A#P#Q..#R#S#T....#q.e#r.c......#s#t.##c#u.f.#..#v#f.##w#x#y.r...#.#.L#z.g.q....#A#B#C............#D#E#d.........M#F..#G#H#I#J..#K.g.w#f.g#L....#m.y#M..#N#O#C..",
"#Cab#9....#xac.....#.##W.c......#M.#.#.##X.f.#...#.r#Y#y#Z#0....#1#2#3#4.g.q....#5#l.V#Z#6.2....#7#H#8#Q#Q#9........#R.L###w....#wa.#Oa##r#0.....y#P......aa.X..",
"ad.g#9....#xar.....#.##W.c.......#.#.#.aacad.#...#ae.g.gaf#F.#...0#8ag.j.g.q.....Dahah.Uai#3#9...zajakak.O.F.2......alaman.........q.g.gao......apacaq....aa.X..",
"ad.g#9....#xar.....#..#W.c.......#.#.#as#o#w.#...##J.Hat.g#Iau..av#m#5aw.g.q............ax.Kay...zaz....aA.kaB......#TaC#M......aD#PaE#g#o.s....#p.g.cakak#z.X..",
"#Cab#9....#xac.....#.##W.c.......#.DaF#HaG...#...#.#.#aH.Sar.M..aI.6aJaK.ga.#w..........#M.g#....zaz......aLaM.......cat....ae..aNaC#i.M.t.1aO....ahak.zacaPaQ..",
".A#P#Q..#R#S#T.....#.##W.c.......3#C.caR.r#F.#...#.#.#au.X#r#i..aSaSaSaT.g#raU..#J#9....aw#OaV...zaW#A....aL#D....#F.O#Q....#9..#EaN....#N#g#T......auan#laX....",
"...f#m.R#n#o#p.....##V#eac#q....#G#uay.RaRas.#...saqau#k#XaY.....#.#.#aw.g.q....#caZ.R.R.XaLa0..a1#H#Da2a2aPaw....#C.c......a3..a2#ba4#va.#y.i....#2.Za5a6.7....",
"...M.N.O.P.Q.d....#T.9a7az#8an...xa8.O.O#B.f.#...X.kaL#xaJ.I.#...#.#.#aw.g.q.....Ca8.O.O.h.M......ah.g.J.Ja2.r....a9.k..........aHb.#SaM.ual....b#ac#P.w#R......"
};
