/* XPM */
static char * led_xpm[] = {
"135 11 3 1",
" 	c None",
".	c #282828",
"+	c #FFF200",
"..+++++.....+++.....+++++....++++++.......++...+++++++...+++++...+++++++..+++++....+++++...............................................",
".+++++++...++++....+++++++...+++++++.....+++...+++++++..++++++...+++++++.+++++++..+++++++..............................................",
".++...++...++++....++...++........++....++++...++.......++............++.++...++..++...++....+.........................................",
".++...++.....++.........++........++...++.++...++.......++...........++..++...++..++...++...+++........................................",
".++...++.....++.........++....+++++...+++++++..++.......++...........++..+++++++..+++++++....+.........................................",
".++...++.....++.....++++++....+++++...+++++++..++++++...++++++......+++...+++++....++++++............+++..+...+.......++++..+...+......",
".++...++.....++....++++++.........++......++....++++++..+++++++.....++...+++++++.......++....+......+++++.++.++.......++..+.++.++......",
".++...++.....++....++.............++......++........++..++...++.....++...++...++.......++...+++.....++..+.+++++.......++..+.+++++......",
".++...++.....++....++.............++......++........++..++...++....++....++...++.......++....+......++..+.+.+.+.......++++..+.+.+......",
".+++++++...++++++..+++++++...+++++++......++...+++++++..+++++++....++....+++++++.......++...........+++++.+...+.......++....+...+......",
"..+++++....++++++..+++++++...++++++.......++...++++++....+++++.....++.....+++++........++...........+...+.+...+.......++....+...+......"};
