/* XPM */
static char * month_xpm[] = {
"18 72 4 1",
" 	c None",
".	c #FFFFFF",
"+	c #000000",
"@	c #020202",
"..................",
"....+...++..+...+.",
"....+..+..+.++..+.",
"....+..+..+.+.+.+.",
".+..+..++++.+..++.",
"..++...+..+.+...+.",
"..................",
".+++++.++++.+++...",
".+.....+....+..+..",
".++++..++++.++++..",
".+.....+....+...+.",
".+.....++++.+++++.",
"..................",
".+...+..++..++++..",
".++.++.+..+.+...+.",
".+.+.+.+..+.+++++.",
".+...+.++++.+..+..",
".+...+.+..+.+..++.",
"..................",
"..+++..+++..@+++..",
".+...+.+..+.@...+.",
".+...+.++++.@++++.",
".+++++.+....@..+..",
".+...+.+....@..++.",
"..................",
".+...+..++..+...+.",
".++.++.+..+..+.+..",
".+.+.+.+..+...+...",
".+...+.++++...+...",
".+...+.+..+...+...",
"..................",
"....+..+..+.+...+.",
"....+..+..+.++..+.",
"....+..+..+.+.+.+.",
".+..+..+..+.+..++.",
"..++....++..+...+.",
"..................",
"....+..+..+.+.....",
"....+..+..+.+.....",
"....+..+..+.+.....",
".+..+..+..+.+.....",
"..++....++..+++++.",
"..................",
"..+++..+..+..++++.",
".+...+.+..+.+.....",
".+...+.+..+.+..++.",
".+++++.+..+.+...+.",
".+...+..++...+++..",
"..................",
"..++++.++++.++++..",
".+.....+....+...+.",
"..+++..++++.+++++.",
".....+.+....+.....",
".++++..++++.+.....",
"..................",
"..+++...+++.+++++.",
".+...+.+......+...",
".+...+.+......+...",
".+...+.+......+...",
"..+++...+++...+...",
"..................",
".+...+..++..+...+.",
".++..+.+..+.+..+..",
".+.+.+.+..+.+..+..",
".+..++.+..+..++...",
".+...+..++...+....",
"..................",
".++++..++++..++++.",
".+...+.+....+.....",
".+...+.++++.+.....",
".+...+.+....+.....",
".++++..++++..++++."};
