/* XPM */
static char * month_es_xpm[] = {
"24 120 141 2",
"  	c None",
". 	c #C4C6B4",
"+ 	c #9C9A8C",
"@ 	c #949684",
"# 	c #94968E",
"$ 	c #ACAEA3",
"% 	c #C4C6BC",
"& 	c #C4C2B4",
"* 	c #9CA294",
"= 	c #1C1A1C",
"- 	c #44423C",
"; 	c #444636",
"> 	c #64665B",
", 	c #A4A28D",
"' 	c #9C9D94",
") 	c #A49E9C",
"! 	c #3C3A2E",
"~ 	c #8C8B7A",
"{ 	c #8C8B85",
"] 	c #7C7E73",
"^ 	c #84867A",
"/ 	c #5C5A4C",
"( 	c #646A5A",
"_ 	c #BCBAB1",
": 	c #BCBEB4",
"< 	c #7C7A71",
"[ 	c #5C564F",
"} 	c #B4B2A4",
"| 	c #141A1A",
"1 	c #545651",
"2 	c #5C5C54",
"3 	c #646258",
"4 	c #8C9283",
"5 	c #4C4A43",
"6 	c #6C726A",
"7 	c #343227",
"8 	c #54524B",
"9 	c #9C9E8C",
"0 	c #747267",
"a 	c #4C4E44",
"b 	c #2C322C",
"c 	c #A4A6A1",
"d 	c #5C625C",
"e 	c #6C6C5C",
"f 	c #B4B4AC",
"g 	c #443E3C",
"h 	c #74766A",
"i 	c #84827A",
"j 	c #3C3E34",
"k 	c #545642",
"l 	c #4C5653",
"m 	c #BCBEAC",
"n 	c #A4AA95",
"o 	c #4C4E3A",
"p 	c #747A70",
"q 	c #ACAA9C",
"r 	c #24261C",
"s 	c #242A20",
"t 	c #848A7C",
"u 	c #9C9692",
"v 	c #ACB2A2",
"w 	c #948E89",
"x 	c #C4C6C4",
"y 	c #949A8C",
"z 	c #7C8275",
"A 	c #6C6E69",
"B 	c #1C1E17",
"C 	c #ACAAA5",
"D 	c #848A85",
"E 	c #2C2E2B",
"F 	c #B4AEAB",
"G 	c #5C5E49",
"H 	c #645E5C",
"I 	c #343A32",
"J 	c #949289",
"K 	c #A4A29E",
"L 	c #34362B",
"M 	c #ACA69C",
"N 	c #646664",
"O 	c #4C4644",
"P 	c #9CA2A0",
"Q 	c #7C7C7C",
"R 	c #8C8684",
"S 	c #1C1E18",
"T 	c #9C9E8E",
"U 	c #7C7C72",
"V 	c #8C8A79",
"W 	c #1C2216",
"X 	c #444A44",
"Y 	c #94968F",
"Z 	c #6C6C68",
"` 	c #BCBCAC",
" .	c #8C8E81",
"..	c #5C5B4B",
"+.	c #C4BEB4",
"@.	c #8C8A84",
"#.	c #B4B6AA",
"$.	c #949288",
"%.	c #848479",
"&.	c #B4B6A4",
"*.	c #A4A6A4",
"=.	c #3C4224",
"-.	c #847E79",
";.	c #BCBDB4",
">.	c #3C3A2F",
",.	c #4C4E38",
"'.	c #544E4C",
").	c #848279",
"!.	c #9C9A8F",
"~.	c #8C9282",
"{.	c #7C8276",
"].	c #ACB2AC",
"^.	c #B4AEA4",
"/.	c #444637",
"(.	c #BCB6B2",
"_.	c #BCBEBD",
":.	c #2C2A2A",
"<.	c #949A94",
"[.	c #B4BAA6",
"}.	c #6C6A66",
"|.	c #7C7674",
"1.	c #545A53",
"2.	c #3C3E3A",
"3.	c #2C2E24",
"4.	c #545A54",
"5.	c #7C7A70",
"6.	c #3C4341",
"7.	c #4C524F",
"8.	c #4C4E39",
"9.	c #5C625B",
"0.	c #34362A",
"a.	c #9C9E8D",
"b.	c #BCBCB4",
"c.	c #2C2A24",
"d.	c #746E6C",
"e.	c #646A66",
"f.	c #BCC2AC",
"g.	c #646259",
"h.	c #A4A69B",
"i.	c #6C6664",
"j.	c #242425",
". + @ @ # $ . % . % . . % . % . % . % % % & & % ",
"* = - - ; > , ' , ' , ' , * , * , * ) * , * * , ",
". ! ~ ~ { ' ] ^ / ( _ . : < [ > } & . % % & & % ",
", | 1 2 3 4 = 5 6 7 8 9 ; ; 0 a b @ ' c 9 c c * ",
". ! 3 d e f ! ~ { d 3 } g d 3 3 ! 9 % & % & & & ",
"* = 6 0 h 4 = 6 i ; j ~ = k l 8 k ] * * , * * , ",
". ! ~ c } m ! ~ n 3 3 n o 3 ~ ~ p q % & % & & % ",
"* = - - ; > = 6 ~ j - { ( 7 r s 7 4 , 9 9 c c 9 ",
". + @ @ # $ t u v { ~ $ w { ~ { ~ $ % % x & & % ",
"9 , * , * , 9 , * , * , # ^ < p ^ y 9 * * , , * ",
". + @ @ # $ . . % . % . 3 _ . . % . % & % % % & ",
"* = - - ; > , * , * , * = z , * , * , c , , , * ",
". ! ~ ~ { ' : < [ > } & j e 2 A : & % & & % % & ",
", | 1 2 3 4 ; ; 0 a b @ B 8 6 7 a + , , * , , 9 ",
". ! 3 d e f g d 3 3 ! 9 ! ~ ~ 0 a C % % & & & % ",
"* = 6 0 h 4 = k l 8 k ] = 6 D k E z * ' , * * , ",
". ! ~ c } m o 3 ~ ~ p q ! ~ F G H 9 . % & & & % ",
"* = 6 , ' , ( 7 r s 7 4 = E s I ( ~ * ) , c c 9 ",
". ~ @ % . % w { ~ { ~ $ ~ ~ ~ ~ u : . . & & & % ",
") t J * , * # ^ < p ^ y ] h < ^ # 9 * * , * * , ",
"% + $ & . & + $ & % . % . % % . % . % . % & & % ",
"* = b # 9 > B 5 # * * , * , , * , * , * , c c 9 ",
". ! k i $ k k 3 $ J 2 [ > f & ] K ] q & & & & x ",
"9 B G 7 > L - ; ~ > > 6 - j @ B E - h , * , , * ",
"% ! ~ a o 0 d 3 c J 3 k ; a M ! ~ ~ c & % & & % ",
"* = 6 8 E A ; - ~ s - > k E ] B 6 ~ # * * * * * ",
"& ! ~ ~ ~ ~ 2 3 n ! ^ ~ N o # ! ~ % . % & & & % ",
"* = 6 4 { z ; ; ~ O r E L E ] = 0 * ' , P c c 9 ",
". ~ # % & v { D $ ~ ~ ~ ~ ~ , t # . % % . & & % ",
") t J , * + 4 { 9 D < ] Q ^ y R @ * ) * , * * , ",
"% . & $ n & . % k % % % & % % . % . % & % & & % ",
", * @ 7 B ^ * ' S , T , * , , ' , ' , * , c c 9 ",
"% & { j / e _ % d U 1 U } & ] c ] q % & % & & x ",
"* # ; j a 7 { , j - 6 - j y B E ; h , 9 , , , * ",
"% q ; < t j # . j V V V j , ! ~ ~ K % % & & & % ",
", ( = E E W X + S 6 Y Z S h | 0 t # , * * , , * ",
"& 3 / ~ ~ e 8 $ k e ` 0 a  .! ~ % % % & % & & % ",
"* s G 0 6 0 B h ..E E E 2 z = 6 * ) * c , * * , ",
"& { { f +.@ ~ + @.V V V @.#.~ # . . . & % & & % ",
", t J 9 * # t 4 $.z U %.$.T t J , ' , , , 9 9 c ",
"&.+ $ & . & + $ & % . . % . % . % & . % & % % & ",
"J = b # 9 > B 5 # * , * , * , , * *., * *., , * ",
"&.=.k -.$ k 1 3 $ J 2 [ > f & U q & ;.V % % % & ",
"J = 2 7 > L - ; ~ > > 6 ; >.y j ,.Y %.S T c 9 c ",
"f j ~ ,.a 0 G 3 n J 3 '.; a M U - * > [ % & % & ",
"J = 6 8 E 6 ; - ~ s ; ( k E ] 6 7 5 s 2 , * , * ",
"&.>.~ ~ ~ ~ 2 3 n >.).{ > ,.+ !.0 - ,.V % & % & ",
"@ = 6 ~.{ {.; - ~ 5 r E I E < 4 6 r a U T c 9 c ",
"f ~ # . & ].{ t $ { ~ ~ ~ ~ K ;.-.- t ^.& & x & ",
"J t J , * + { ~.+ t ] < ] ^ # y 7 /.0 T * * * , ",
"% f + y (.. . % . % . . % . % . % . % . % & % & ",
", ] - r > 9 ' , ' , ' , ' , ' , ' , ' , , * , * ",
"% q ~ 5 0 f ).: & y + _.{.)./ ( : % % % % & % & ",
"* @ 6 E k @ B t @ X 5 @ = 5 6 7 8 + , * , 9 c * ",
"& % u ,.0 f >.{ $ 3 3 q =.R ~ d 3 v % . & % & % ",
", * ] E k J B 6 ~ ; ; t = 6 {.- - ~ * ) * , * , ",
"% & # ; < &.j ^ , 1 H n >.~ q d 3 n & . & % & % ",
", s :.>.6 y - r E b - ~ B A ~ ; - { * , c 9 c * ",
"& { ~ ~ , & ~ ~ ~ ~ ~ $ ~ # F t ~ $ % % & % & & ",
", {.< D + * D < < {.{ 9 ^ @ + ~.{ + , * * , * , ",
". f + y (.. . % . % . % 3 _ . . % & % & % % & % ",
", ] - r > <., ' , ' , * = {.* , * * , * , 9 c 9 ",
"% q ~ 5 0 [.).: & y + +.>.~ % & % & % & % x & % ",
"* @ 6 E k J = t J 5 X @ B 6 , P , 9 c 9 c * , * ",
". % u ,.0 &.>.~.q 3 G $ >.~ & % & % & % & % & % ",
") * ] E 1 @ = 0 t - ; ~ = A * , * , * , * 9 c * ",
". . u ; p &.j ^ n 1 3 n >.~ % & % % & % & % & & ",
", s s >.0 @ ; r :.L j ~ B A , P , 9 c 9 c , * , ",
"% ~ ~ ~ K & ~ R ~ ~ { $ { # . & % % & % & % & % ",
"* -.p ~ y * ~ p < {.{ + t J P , * , * , * 9 c 9 ",
". % & $ n & % . % . % . % . % . % . % . & % & % ",
", * @ 7 B ^ * ' , ' , ' , ' , * , * , * * , * , ",
"& & { j / e _ % f p / }.^ : f |.1.|.} & & % & % ",
"* # ; j a 7 ~ * ; - 0 ; E { >.- 6 /.2.y c 9 c * ",
"% q ; < t j # . j ^ ~ 0 ,.' =.{ ~ ~ 2., & % & & ",
", ( = E E W X + = 0 t 1 E ] B A @ 6 = h * , * , ",
"& 3 / ~ ~ e 8 q ; 0 $ e ,.u 8 e _ 0 k { & % & % ",
"* s 2 0 6 0 B p G :.b 7 E < G 3.3.3./ ).c 9 c 9 ",
"& { ~ f +.@ ~ + ).~ ~ > 4.+ { ~ { t { f & x & % ",
", t J 9 * # t ~.a r E E ( R $.z 5.).@ ' , * , * ",
"&.& ~ 5.5.* & . % . % . % . % . % . % . & % % & ",
"$.X 3.8 X 3.e ' * , * , * , * , * , * , * , , * ",
"&.>.~ { ~ ~ $._ : 5.[ > f & ] )./ A : & % & % & ",
"# 3.3.1 h z { 9 /.6.0 7.3.@ B a 6 7 a + , * , 9 ",
"f ^ 3 8 - 8.$ & 2.3 3 H =.+ >.{ ~ 0 a C % & & % ",
"$.p 0 6 6 2./.+ = k l k 8 ] = 0 t 1 3.] * , * , ",
"&.5.n + ~ 8 > } 8.3 ~ ~ p q >.t F G 9.' % & & % ",
"# 0.r 7 s - 0 ~.( 7 s r 7 ~.B 3.s 0.e ~ * , c 9 ",
"f ~ ~ ^ ~ ~ ' +.{ { ~ { { $ >.~ ~ { # _ % & & % ",
"$.^ p 5.] { + * y ^ 5.p ^ y = 6 5.^ y ) * , * , ",
". . f ^ |.^ m % . % . % . % % . % . % . % & . % ",
", h r X k /.3.~ ) a., a., * , k 1 + , * , c , 9 ",
"& 8 > ~ ~ D [ > m } U 1 U } b.a 8.A q % & & & x ",
"* B }.] { h 8.3.~ j - 6 - j @ 0.0.1 z , * , y * ",
"& >.~ : . $ 0 a ' j V V V V q 3 3 ~ $ & % & _ % ",
"* r > ' , ~.- I ] S 6 Y t , t - - z + , * * 9 * ",
"& 3 a f % + - 0 , k e ` 0 a n 9.G c % % & & & % ",
", 6 /.3.7 s a 6 @ ..E E E 2 V 3 c.3.p , P c y 9 ",
"& ) ~ ~ { ~ ~ c +.@.V V V @.$ { ~ ~ K & . & f % ",
", y { ] 5.z { 9 * $.z U %.$.a.# z z $.* , * 9 , ",
"% + $ & & } $ & . % . % . . % . % . % . % % & % ",
", = s @ y 8.7.# , * , * , * , * , * , * , , c 9 ",
". >.3 d.n 3 3 $ f |.1.|.} & ] C & : R , & % & x ",
"* = ( s h - /.~ >.- 6 /.2.y I 5 y ~ W A * , , * ",
". >.~ 3 > 3 9.q =.{ ~ ~ 2., ] - , e.[ { . & & % ",
"* B A e s - - t B A @ 6 = h 0 3.1 7 1 ] , * , * ",
". >.~ { 3 - G q 8 e _ 0 k { # > 8.- ~ f % % & % ",
"* = 0 t ( W /.t G 3.3.3./ ).~ 0 B X h ' * , * , ",
"% ~ # _ ~ { ~ F { ~ { t { f f.$.~ { q % . % & % ",
", ^ @ * $.).t y $.z 5.).@ ' ' # ^ ~ + * , , 9 c ",
". + @ # $ & % . T & . % . % . % . % . % . & % & ",
"* = /.- 0.0.{ ' 7  .a., a., * , , * , * , * , * ",
"% >.~ ~ ~ > 8 [.g.h.} U 1 U } b.& & % & & & % & ",
"* = 6 ^ h A r i.S U j - 6 - j @ * c 9 c * c 9 c ",
". >.~ % +.~ 8.0 >.~.j V V V V q . & % & . & % & ",
"* = 0 * * p j.( S 0 S 6 Y t , t * * , * * * , * ",
". >.~ & _ [ / ~ >.V k e ` 0 a n % & % & % & % & ",
", | 3.7 s /.6 ^ | 0 ..E E E 2 V * c 9 c * c 9 c ",
"% ~ ~ D ~ ~ ' : V y @.V V V @.$ . & x & . & x & ",
"* ] p ] ] D + , %.@ $.z U %.$.a.* , * , * , * , "};
