/* XPM */
static char * weekday_es_xpm[] = {
"60 70 102 2",
"  	c None",
". 	c #C4C2B4",
"+ 	c #C4C6BC",
"@ 	c #ACAA9C",
"# 	c #9C9A8F",
"$ 	c #9CA294",
"% 	c #A4A28D",
"& 	c #9C9E8E",
"* 	c #848A7C",
"= 	c #444636",
"- 	c #3C4341",
"; 	c #5C5C54",
"> 	c #646258",
", 	c #A4AA95",
"' 	c #7C8275",
") 	c #BCBCAC",
"! 	c #949A8C",
"~ 	c #7C7C72",
"{ 	c #848479",
"] 	c #5C564F",
"^ 	c #6C6C5C",
"/ 	c #BCBABC",
"( 	c #BCBDB4",
"_ 	c #64665B",
": 	c #B4B1AD",
"< 	c #645E5C",
"[ 	c #545651",
"} 	c #8C8A79",
"| 	c #8C8A84",
"1 	c #1C1E18",
"2 	c #949288",
"3 	c #4C4A43",
"4 	c #444A44",
"5 	c #6C726A",
"6 	c #343534",
"7 	c #4C4E38",
"8 	c #444637",
"9 	c #44423C",
"0 	c #4C4E44",
"a 	c #343227",
"b 	c #949684",
"c 	c #1C2216",
"d 	c #5C5B4B",
"e 	c #8C8E81",
"f 	c #3C3A2F",
"g 	c #5C625C",
"h 	c #B4B2A4",
"i 	c #3C3E34",
"j 	c #747267",
"k 	c #ACAEA3",
"l 	c #A4A69B",
"m 	c #A4A6A4",
"n 	c #141A1A",
"o 	c #545642",
"p 	c #ACAAA4",
"q 	c #848A84",
"r 	c #7C7674",
"s 	c #74766A",
"t 	c #2C2E2B",
"u 	c #6C6C68",
"v 	c #2C2E24",
"w 	c #2C2A24",
"x 	c #242A20",
"y 	c #8C9283",
"z 	c #ACAFAC",
"A 	c #B4AEA4",
"B 	c #94968F",
"C 	c #747A70",
"D 	c #B4B6AA",
"E 	c #2C322C",
"F 	c #847E79",
"G 	c #949289",
"H 	c #6C6664",
"I 	c #545A54",
"J 	c #3C4224",
"K 	c #343A32",
"L 	c #646A5A",
"M 	c #54524B",
"N 	c #646259",
"O 	c #646664",
"P 	c #5C5C4B",
"Q 	c #24261C",
"R 	c #ACB2A2",
"S 	c #A4A29C",
"T 	c #C4BEBB",
"U 	c #BCBCB4",
"V 	c #9C9E8D",
"W 	c #8C9282",
"X 	c #4C5653",
"Y 	c #9CA2A0",
"Z 	c #4C4644",
"` 	c #BCB6B2",
" .	c #C4C7C5",
"..	c #B4BAA6",
"+.	c #949A8D",
"@.	c #242A21",
"#.	c #8C8A85",
"$.	c #7C8276",
"%.	c #1C1D18",
"&.	c #1C2217",
"*.	c #545652",
"=.	c #949A84",
". + + + + + . + + + + . + + @ # # + . + + + + + . + + + + + . + + + . + + + + + . + + + . + + + + + + . + + + + + . + + ",
"$ % & % & % $ % % & % $ % % * = - % $ % & % & % $ % & % & % $ % & % $ % & % & % $ % & % $ % & % & % & $ % & % & % $ % & ",
". + + + + + . + + + + . + + @ ; > , + . + ' ) . # ! + ~ { ] ^ / + ( ~ ] _ : + & < [ ~ ) . + + + + + + . + + + + + . + + ",
"% $ % & % $ % $ & % $ % $ & } = = | % $ % 1 * 2 3 4 % 1 3 5 6 7 & 8 9 5 0 a b c d ^ 8 e % $ % & % & % % $ % & % $ % $ % ",
". + + + . + . + + . + . + + @ > > @ + . + f 2 @ g > + f * } > > h i > > g f & 9 d j { k . + + + + + . . + + + . + . + + ",
"$ % & l & % $ % l & m $ % l * = - } % $ % n j * = 9 & 1 j ' 8 i e n o o o o ~ ^ - a c { $ % & l & l & $ % & l & m $ % & ",
". + . . + + . + . + . . + . @ ; > , | > . i { l o > . f } p g > @ 7 > q | r @ 5 } | 8 s . + . . . . + . + . . + . . + . ",
"% & m $ % & % & $ % $ % & $ } = = - - _ % = c t a - m 1 u * 8 9 * ^ v w x a y a x x i j % & m $ m $ % % & m $ % $ % & m ",
"+ + . . + + + + . + . + + . z | } | | k + } } } } | . | ! A } } k 2 | } } | k } | } | & + + . . . . + + + . . + . + + . ",
"% $ % & m $ % $ & % $ % $ & % $ % & m $ % | ~ ~ ' e % { b # y y # B { ~ C { ! { C ~ * & % $ % & % % $ % $ % & m $ % $ % ",
". + . + . + . + + . + D # k . + . # k . . + + + + + . + + + . + + + + . + + + . + + + + + . + + + . + + + + + . + + + + ",
"l & m $ % & l & & l & $ 2 1 E 2 & _ 1 3 ! $ % & % & % $ % & % # o o # % $ % & % $ % % $ % & % % % l & & % & % $ % & % & ",
". + + + + + . + + . + . D f o F k o o > k G ; [ H h + ~ l ~ @ @ 0 0 u k ( ~ ] _ : + & < I ~ ) + + . + + + + + . + + + + ",
"$ % & % & % $ % % $ % % 2 1 d a _ a = 9 } _ _ j J i b 1 v 8 s { 6 K o ~ 8 9 5 0 a b c d L 9 y $ & $ % % & % $ % $ % & % ",
". + + + + + . + + . + . D f } 0 7 j g g @ G g M 8 0 l f } | l % N N } k i > > g f & 9 d j { k + + . + + + . + . + + + + ",
"% $ % & % $ % $ $ % $ $ 2 1 5 o t u = 9 } x 9 ^ o t ~ 1 5 } B * - 9 ' # n o o o o ~ L 8 a c { % l % $ & l & m $ % & l $ ",
". + + + . + . + + . + . D f } | } | g > l f { } O 7 # f } + + @ N P , + 7 > q | r @ j | } 8 s + . . + . . + . . + . . + ",
"$ % & l & m $ % m $ % % b 1 5 y } ' = 9 } 4 Q t K t ~ 1 5 % $ e N x t C ^ v w x a y a x x i j & $ $ % m $ % $ % & m $ % ",
". + . . + . . + . . + + D } B + + k } * R } } } } } S } B . + ) e } } % 2 | } } | k } | } | & + . . + . . + . + + . . + ",
"% & % $ % & & $ % $ % & $ % & % 2 { 2 % $ & e y # e ~ ~ ' { ! * 2 % $ & G { ' G B { ~ C { ! & % $ % & $ & % $ % $ % & & ",
"+ . . + + + + D # k . + . # k D & . + + + ~ ] _ . + + + + + . + + + . + + + + + . & . + . + + + + + . + + . + . + + + + ",
"$ $ $ % & % $ 2 1 E 2 & _ 1 3 2 a e # & % } } } $ % & % & % $ % & % $ % & % & % $ 1 j % $ % & % & % $ % & $ % $ % & % $ ",
"+ . . + + + + D f o F k o o > D N l . ( ~ ] _ h T ~ l ~ @ h ~ [ ~ h U h ~ [ ~ h U f } ( ~ ] _ : + & < I ~ ) + . + + + + ",
"& % % $ % & % 2 1 d a _ a = 9 2 1 ~ V 8 - j 0 v b 1 v 8 s i 9 5 9 i b i 9 5 9 i b n j 8 9 5 0 a b c d L 9 y $ % $ % & % ",
"+ . . + + + + D f } 0 7 j g g D f W R i > > > i @ f } | l i } } } } @ i } } } i @ f W i > > g f & 9 d j { k + . + + + + ",
"& $ $ % & l & 2 1 5 o t u = 9 2 1 j } 1 o X M o } 1 5 } B 1 5 B * % * 1 5 B u 1 * 1 j n o o o o ~ L 8 a c { m $ % & l & ",
"+ . . + . . + D f } | } | g > D f } @ 3 g } } C , f } + + o ^ ) j 0 , o ^ ) j 0 , f } 7 > q | r @ j | } 8 s . . + . . + ",
"$ % % & m $ l b 1 5 y } ' = 9 B n j * L a w x a * 1 5 % $ d t t t ; } d t t t ; } n j ^ v w x a y a x x i j $ % & m $ l ",
"+ + + + . . . D } B + + k } * D } ! R 2 } * } | h } B . + | } } } | k | } } } | k } ! 2 | } } | k } | } | & . + + . . . ",
"% % % $ % & % 2 { 2 % $ & e y 2 { b # B { ~ ~ { ! * 2 % $ 2 ' ~ { 2 V 2 ' ~ { 2 V { b B { ~ C { ! { C ~ * & $ % $ % & % ",
"+ + + . + + . . + + . + + + @ # # + . + + + + + . + + + . + + + + + . + + + . + + + + + . + + + + + . + + . + + + + . + ",
"% & % $ % & % $ % & $ % & % * = - % $ % & % & % $ % & % $ % & % & % $ % & % $ % & % & % $ % & % & % $ & % $ % & % % $ % ",
"+ + + . + + . . + + . + + + @ ; > , ' ) . # ! + ( ~ ] _ h T 7 < k > d % ( ~ ] _ h T & < I ~ ) + + + . + + . + + + + . + ",
"% $ $ % $ % % % $ % % & % $ } = = | 1 * 2 3 4 $ 8 - j 0 v b [ v s a 0 { 8 - j 0 v b c d L 9 y & % $ % % $ % $ % & $ % $ ",
". + + . + + . . + + . + . + @ > > @ f 2 @ g > + i > > > i @ | 4 } i | h i > > > i @ 9 d j { k + + + . . + . + + + + . + ",
"$ % m $ % & Y $ % & $ l & m * = - | n j * = 9 m 1 o X M o } j K 0 v 5 & 1 o X M o } L 8 a c { l & m $ & m $ % & l m $ % ",
"+ + . . + . + . + . . . - . @ ; > @ i { l o > . 3 g } } C , } _ Z > # + 3 g } } C , j | } 8 s . . . . + . . + . . . . + ",
"% & $ % & m $ % & m % $ | - - - - $ = c t a - $ L a w x a * ~ > 1 o * $ L a w x a * a x x i j $ m $ % % $ % & m $ $ % & ",
"+ + . + + . . + + . + . | | | | | k } } } } | . 2 } * } | h h * } * ` . 2 } * } | h } | } | & . . . + + . + + . . . + + ",
"% & $ % $ % $ % $ % % & m $ % $ % & | ~ ~ ' e $ B { ~ ~ { ! & y { e & $ B { ~ ~ { ! { C ~ * & & % $ % m $ % $ % & $ % $ ",
"+ + + . + + + + + . + + # . . . & . & . + + . + + + . + + + + + . + + + . + + + + + . + . + + + + . + + + + + . + + +  .",
"% & % $ % & % & % $ % % v _ & u 1 e a e & % $ % & % $ % & % & % $ % & % $ % & % & % $ % $ % & % & $ % & % & % $ % & % & ",
"+ + + . + + + + + . + + d > , > 7 % N l ( ~ ] _ h T ~ l ~ @ ~ { ] ^ / + ( ~ ] _ : + & < [ ~ ) + + . + + + + + . + + + + ",
"% $ $ % $ % & % $ % $ $ [ v j a [ { 1 ~ 8 - j 0 v b 1 v 8 s 1 3 5 6 7 & 8 9 5 0 a b c d ^ 8 e & % % $ % & % $ % $ % & % ",
". + + . + + + . + . + + | i e 8 | h f W i > > > i @ f } | l f * } > > h i > > g f & 9 d j { k + . . + + + . + . + + + . ",
"$ % m $ % & l & m $ % m j v 3 K j & 1 j 1 o X M o } 1 5 } B 1 j ' 8 i e n o o o o ~ ^ - a c { l & $ % & l & m $ % & l & ",
"+ + . . + . . + . . + . # g 9 _ } + f } 3 g } } C , f } + + f } p g > @ 7 > q | r @ 5 } | 8 s . + . + . . + . . + . . + ",
"% & $ % & m $ % $ % & $ } d 1 > ~ $ n j L a w x a * 1 5 % $ 1 u * 8 9 * ^ v w x a y a x x i j $ % % & m $ % $ % & m $ % ",
"+ + . + + . . + . + + . ..| } * h . } ! 2 } * } | h } B . + | ! A } } k 2 | } } | k } | } | & . + + + . . + . + + . . + ",
"% & $ % $ % & m $ % $ $ & y { 2 & $ { b B { ~ ~ { ! * 2 % $ { b # y y # B { ~ C { ! { C ~ * & & m % $ % & m $ % $ % & m ",
"+ + + . + + + + . + D . e r ~ & . + + + ~ ] _ + o + + + . + + . + + + + + + + + o ! + + + + + . + + + + + . + + + . + + ",
"% & % $ % & & % $ % G 8 t o 8 t ^ & % $ } } } G 1 % & % $ % % V % V % G $ % & % 1 % % & % & % $ % & % & % $ % & % $ % & ",
"+ + + . + + + + . + D f e } | } G ) G ; [ H h D g ~ [ ~ h . B ; P _ : D ( ~ [ ~ g e h ~ [ ~ h U + + + + + . + + + . + + ",
"% $ $ % $ % $ $ % $ G t t [ s ' e & _ _ j J i +.i 9 5 9 i ! _ N 5 9 i +.i 9 5 9 i ! i 9 5 9 i b $ % & % $ % $ % & % $ % ",
". + + . + + + + . + D { N o 9 0 k . G g M 8 0 @ i } } } i % G N M 8 7 @ i } } } i % i } } } i @ + + + . + . + + + . + + ",
"$ % m $ % & % m $ % G C j u 5 i 8 ! x 9 ^ o t ~ 1 5 B u 1 s @.9 L o t ~ 1 5 B u 1 s 1 5 B u 1 * % & l & m $ % & l $ % & ",
"+ + . . + . + . . + D ~ % & } M _ h f { } O 7 # o ^ ) j 0 e f { } O 7 # o ^ ) j 0 e o ^ ) j 0 , + . . + . . + . . . + . ",
"% & $ % & m & $ % & b a Q a x 9 5 G 4 Q t K t ~ d t t t ; ' 8 Q t 6 t ~ d t t t ; ' d t t t ; } & m $ % $ % & m $ % & m ",
"+ + . + + . + . + + D } | } } } % U } } } } } S | } } } | D #.} } } } S | } } } | D | } } } | k + . . + . + + . . + + . ",
"% & $ % $ % & $ % $ G { ~ C ~ q # $ e ~ ~ ' { +.2 ' ~ { 2 & q ~ ~ $.{ +.2 ' ~ { 2 & 2 ' ~ { 2 V $ % & m $ % $ % & % $ % ",
".  .+ . + . + . @ # # # # @ + . + . + + + . + . + + + . + . + + & . + . + + + . + + + + + . + + +  ..  .+ . . + . + . + ",
"$ % & l & m & m * = - - - _ % % $ % V % $ % $ % V % $ % V % $ % a e & % $ % & % % $ % V % $ % & % & % $ & m l & m $ % & ",
"+ + + . + + + + @ ; > , | > | . h ~ [ ~ h U ~ { P _ U { P _ U . N l ~ { ] ^ / + B P t P ~ b h ~ [ ~ h U + + . + + + + + ",
"% & % $ % & % & } = = | & - = % i 9 5 9 i b %.3 5 a M 3 5 a M V 1 ~ 1 3 5 6 7 & i s +.{ &.s i 9 5 9 i b % & $ % & % & % ",
"+ + + . + + + + @ > > @ + > > . i } } } i @ f } #.g N } #.g N R f W f * } > > h 7 *.$ H *.G i } } } i @ + + . + + + + + ",
"& % $ % $ % $ % * = - } & - = Y 1 5 B u 1 * %.5 $.8 9 5 $.8 9 } 1 j 1 j ' 8 i e t a Z @.P { 1 5 B u 1 * $ % % $ % & % $ ",
"+ . + . + + + + @ ; > , | > | + o ^ ) j 0 , f } @ N g } @ N g @ f } f } p g > @ # # j 9 7 } o ^ ) j 0 , + + . + + + . + ",
"l & m $ % & % & } = = - - _ % $ d t t t ; } %.j * 9 9 j * 9 9 * n j 1 u * 8 9 * W W 5 Q 0 ~ d t t t ; } % & $ % & l & m ",
". + . . + . + . z | } | | k + . | } } } | k } B R } } B R } } R } ! | ! A } } k 9 F F 9 * k | } } } | k + . . + . . + . ",
"$ % $ % & m & m & e y # # % $ $ 2 ' ~ { 2 V { b # W W b # W W # W # { b # y y # =.6 8 j V $ 2 ' ~ { 2 V & m % & m $ % $ "};
