/* XPM */
static char *clock_xpm[] = {
/* width height num_colors chars_per_pixel */
"   164    34       47            1",
/* colors */
". c #040204",
"# c #141614",
"a c #1c1a1c",
"b c #242224",
"c c #242a24",
"d c #2c2a2c",
"e c #2c322c",
"f c #2c3234",
"g c #34322c",
"h c #343234",
"i c #343634",
"j c #343a3c",
"k c #343a44",
"l c #3c3a3c",
"m c #3c3e3c",
"n c #3c423c",
"o c #44423c",
"p c #4c4e44",
"q c #4c524c",
"r c #54524c",
"s c #545254",
"t c #5c625c",
"u c #64625c",
"v c #646264",
"w c #646664",
"x c #646a7c",
"y c #6c6a64",
"z c #6c6a6c",
"A c #6c7264",
"B c #74726c",
"C c #747274",
"D c #74766c",
"E c #7c7a6c",
"F c #7c7e7c",
"G c #7c829c",
"H c #94928c",
"I c #949684",
"J c #94968c",
"K c #9c9e8c",
"L c #9ca294",
"M c #a4a28c",
"N c #a4a6a4",
"O c #b4b6b4",
"P c #bcbabc",
"Q c #c4c2b4",
"R c #c4c6bc",
"S c #c6bcc4",
/* pixels */
"...................................................................................................................................................................k",
"...................................................................................................................................................................k",
"...eilmnomnomnomnomnomnomnomnomnomnomnomnomnomnomnomnomnomnomnomnomnomnomnomnomnomnomnomnomnomnomnomnomnomnomnomnomnomnomnomnomnomnomnomnomnomnomnomnomnomnomnoma#.k",
"...diopprprqrprprqrprprqrprprqrprprqrprprqrprprqrprprqrprprqrprprqrprprqrprprqrprprqrprprqrprprqrprprqrprprqrprprqrprprqrprprqrprprqrprprqrprprqrprprqrprprqrprqsc.k",
"...lrBSRRRRRRRRRRSRQQQRQQRQQRQQRQSRRRRRRRRRRSRQQQRQQRQSRRRRRRRRRRSRQQQRQQRQQRQQRQRQRRRRRSRQQQRQQRQQRQQRQRRRRRRRRRRRRQRRRRRSRRRRRRRRRRSRRRRRRRRRRSRQQQRQQRQQRQQRQwh.k",
"...gpASMMLLMLMNNLMLMKNLMLMNLMLMKNLMLMKNLMLMNLMLMKNLMLMNLMLMKNLMLMNLMLLMLMNLMLMKNLMLMNLMLMMLLMLMNNLMLMKNLMLMNLMLMKNLMLMKNLMLMNLMLMKNLMLMNLMLMKNLMLMNLMLLMMLMKNLMLwh.k",
"...nuHKQQQRQRQRQRQRQRQRQRQQRQRQRQRQRQRQRQRQQRQRQRQRQRQQRQRQRQRQRQQRQRRQRQQRQRQRQRQRQQRQRQQQRQRQRQRQRQRQRQRQQRQRQRQRQRQRQRQRQQRQRQRQRQRQQRQRQRQRQRQQRQRQRRQRRQQRQwh.k",
"...irDKNLLMKNLMLMKNLMLMKNLLMKNLMLMKNLMLMKNLLMKNLMLMKNLLMKNLMLMKNLLMKNMKNLLMKNLMLMKNLLMKNNLLMKNLMLMKNLMLMKNLLMKNLMLMKNLMLMKNLLMKNLMLMKNLLMKNLMLMKNLLMKNMKNLMLMKNLwh.k",
"...nuJRQQQRRQQRQRRQQRQRRQQQRRQQRQRRQQRQRRQQQRRQQRQRRQQQRRQQRQRRQQQRRQRRQQQRRQQRQRRQQQRRQQQQRRQQRQRRQQRQRRQQQRRQQRQRRQQRQRRQQQRRQQRQRRQQQRRQQRQRRQQQRRQQRQRQRQRQRwh.k",
"...irDMKNNLMKNKNLMKNKNLMKNNLMKNKNLMKNKNLMKNNLMKNKNLMKNNLMKNKNLMKNNLMKLMKNNLMKNKNLMKNNLMKKNNLMKNKNLMKNKNLMKNNLMKNKNLMKNKNLMKNNLMKNKNLMKNNLMKNKNLMKNNLMKNLMKNKNLMKwh.k",
"...nuJRRQQQRRQRQQRRQRQQRRQQQRRQRQQRRQRQQRRQQQRRQRQQRRQQQRRQRQQRRQQQRRQRRQQQRRQRQQRRQQQRRRQQQRRQRQQRRQRQQRRQQQRRQRQQRRQRQQRRQQQRRQRQQRRQQQRRQRQQRRQQQRRQRRRQRQRRRwh.k",
"...irDLMLLMLMLMLMLMLMLMLMLLMLMLMLMLMLMLMLMLLMLMLMLMLMLLMLMLMLMLMLLMLMMLMLLMLMLMLMLMLLMLMMLLMLMLMLMLMLMLMLMLLMLMLMLMLMLMLMLMLLMLMLMLMLMLLMLMLMLMLMLLMLMLMKMLMLMKMwh.k",
"...muJQRQQRQRQRQRQRQRQRQRQQRQRQRQRQRQRQRQRQQRQRQRQRQRQQRQRQRQRQRQQRQRRQRQQRQRQRQRQRQQRQRRQQRQRQRQRQRQRQRQRQQRQRQRQRQRQRQRQRQQRQRQRQRQRQQRQRQRQRQRQQRQRQRRRQRQRRRyh.k",
"...iqENKNNKNKNKNKNKNKNKNKNNKNKNKNKNKNKNKNKNNKNKNKNKNKNNKNKNKNKNKNNKNKKNKNNKNKNKNKNKNNKNKKNNKNKNKNKNKNKNKNKNNKNKNKNKNKNKNKNKNNKNKNKNKNKNNKNKNKNKNKNNKNKLMLMKNLMLMwf.k",
"...muIQRQQRQRQRQRQRQRQRQRQQRQRQRQRQRQRQRQRQQRQRQRQRQRQQRQRQRQRQRQQRQRRQRQQRQRQRQRQRQQRQRRQQRQRQRQRQRQRQRQRQQRQRQRQRQRQRQRQRQQRQRQRQRQRQQRQRQRQRQRQQRQRRQRQRQRQRQwh.k",
"...iqEKNLMKNKNLMKLMKNLLMKNLMLMKNLKNLMKNKNLMKLMKNLLMKNLKNLMKNKNLMKLMKNLLMKNLMLMKNLKNKNLMKLMKNLLMKNLMLMKNLKKNLMKNKNLMKNKNLMKKNLMKNKNLMKKNLMKNKNLMKLMKNLLMKNLMLMKNLwh.k",
"...ouHRQRRRQRQRRRQRRQQQRRQQRQRRQQRQRRRQRQRRRQRRQQQRRQQRQRRRQRQRRRQRRQQQRRQQRQRRQQRQRQRRRQRRQQQRRQQRQRRQQRRQRRRQRQRRRQRQRRRRQRRRQRQRRRRQRRRQRQRRRQRRQQQRRQQRQRRQQwh.k",
"...irDMLMKMLMLMKMMLMKMLMLMKMLMLMKMLMKMLMLMKMMLMKMLMLMKMLMKMLMLMKMMLMKMLMLMKMLMLMKMLMLMKMMLMKMLMLMKMLMLMKMMLMKMLMLMKMLMLMKMMLMKMLMLMKMMLMKMLMLMKMMLMKMLMLMKMLMLMKwh.k",
"...muJRQRRRQRQRRRRQRRRQRQRRRQRQRRRQRRRQRQRRRRQRRRQRQRRRQRRRQRQRRRRQRRRQRQRRRQRQRRRQRQRRRRQRRRQRQRRRQRQRRRRQRRRQRQRRRQRQRRRRQRRRQRQRRRRQRRRQRQRRRRQRRRQRQRRRQRQRRwh.k",
"...irDNLMLMKNLMLMNLMLMKNLMLMKNLMLNLMLMKNLMLMNLMLMKNLMLNLMLMKNLMLMNLMLMKNLMLMKNLMLMKNLMLMNLMLMKNLMLMKNLMLMNLMLMKNLMLMKNLMLMNLMLMKNLMLMNLMLMKNLMLMNLMLMKNLMLMKNLMLwh.k",
"...muJQRQRQRQRQRQQRQRQRQRQRQRQRQRQRQRQRQRQRQQRQRQRQRQRQRQRQRQRQRQQRQRQRQRQRQRQRQRQRQRQRQQRQRQRQRQRQRQRQRQQRQRQRQRQRQRQRQRQQRQRQRQRQRQQRQRQRQRQRQQRQRQRQRQRQRQRQRyh.k",
"...iqELMKNLMLMKNLLMKNLMLMKNLMLMKNLMKNLMLMKNLLMKNLMLMKNLMKNLMLMKNLLMKNLMLMKNLMLMKNLMLMKNLLMKNLMLMKNLMLMKNLLMKNLMLMKNLMLMKNLLMKNLMLMKNLLMKNLMLMKNLLMKNLMLMKNLMLMKNwf.k",
"...muJQRRQQRQRRQQQRRQQRQRRQQRQRRQQRRQQRQRRQQQRRQQRQRRQQRRQQRQRRQQQRRQQRQRRQQRQRRQQRQRRQQQRRQQRQRRQQRQRRQQQRRQQRQRRQQRQRRQQQRRQQRQRRQQQRRQQRQRRQQQRRQQRQRRQQRQRRQwh.k",
"...irDNLMKNKNLMKNNLMKNKNLMKNKNLMKNLMKNKNLMKNNLMKNKNLMKNLMKNKNLMKNNLMKNKNLMKNKNLMKNKNLMKNNLMKNKNLMKNKNLMKNNLMKNKNLMKNKNLMKNNLMKNKNLMKNNLMKNKNLMKNNLMKNKNLMKNKNLMKwh.k",
"...muJQQRRQRQQRRQQQRRQRQQRRQRQQRRQQRRQRQQRRQQQRRQRQQRRQQRRQRQQRRQQQRRQRQQRRQRQQRRQRQQRRQQQRRQRQQRRQRQQRRQQQRRQRQQRRQRQQRRQQQRRQRQQRRQQQRRQRQQRRQQQRRQRQQRRQRQQRRwh.k",
"...irDLMLMLMLMLMLLMLMLMLMLMLMLMLMLMLMLMLMLMLLMLMLMLMLMLMLMLMLMLMLLMLMLMLMLMLMLMLMLMLMLMLLMLMLMLMLMLMLMLMLLMLMLMLMLMLMLMLMLLMLMLMLMLMLLMLMLMLMLMLLMLMLMLMLMLMLMLMwh.k",
"...nuJQRQRQRQRQRQQRQRQRQRQRQRQRQRQRQRQRQRQRQQRQRQRQRQRQRQRQRQRQRQQRQRQRQRQRQRQRQRQRQRQRQQRQRQRQRQRQRQRQRQQRQRQRQRQRQRQRQRQQRQRQRQRQRQQRQRQRQRQRQQRQRQRQRQRQRQRQRwh.k",
"...irDNKNKNKNKNKNNKNKNKNKNKNKNKNKNKNKNKNKNKNNKNKNKNKNKNKNKNKNKNKNNKNKNKNKNKNKNKNKNKNKNKNNKNKNKNKNKNKNKNKNNKNKNKNKNKNKNKNKNNKNKNKNKNKNNKNKNKNKNKNNKNKNKNKNKNKNKNKwh.k",
"...nuJQRQRQRQRQRQQRQRQRQRQRQRQRQRQRQRQRQRQRQQRQRQRQRQRQRQRQRQRQRQQRQRQRQRQRQRQRQRQRQRQRQQRQRQRQRQRQRQRQRQQRQRQRQRQRQRQRQRQQRQRQRQRQRQQRQRQRQRQRQQRQRQRQRQRQRQRQRwh.k",
"...iqEMLMLMLMLMLMMLMLMLMLMLMLMLMLMLMLMLMLMLMMLMLMLMLMLMLMLMLMLMLMMLMLMLMLMLMLMLMLMLMLMLMMLMLMLMLMLMLMLMLMMLMLMLMLMLMLMLMLMMLMLMLMLMLMMLMLMLMLMLMMLMLMLMLMLMLMLMLwh.k",
"...ouHQRQRQRQRQRQQRQRQRQRQRQRQRQRQRQRQRQRQRQQRQRQRQRQRQRQRQRQRQRQQRQRQRQRQRQRQRQRQRQRQRQQRQRQRQRQRQRQRQRQQRQRQRQRQRQRQRQRQQRQRQRQRQRQQRQRQRQRQRQQRQRQRQRQRQRQRQRwh.F",
"...irDJKMKMLMLMKNLMKNLMLMLMLMLMLMLMLMLMLMLMLMLMLMLMLMLMLMLMLMLMLMLMLMLMLMLMLMLMLMLMLMLMLMLMLMLMLMLMLMLMLMLMLMLMLMLMLMLMLMLMLMLMLMLMLMLMKNKNLMKNLMLLMLLMKMMKMMLMMwh.j",
"...#swwzwwwwwwwwwvwwwvwwwwwwwwwwwwwwwwwwwwwwwwwwwwwwwwwwwwwwwwwwwwwwwwwwwwwwwwwwwwwwwwwwwwwwwwwwwwwwwwwwwwwwwwwwwwwwwwwwwwwwwwwwwwwwxvwwwwvwwwwvwzvwwwwwxvwwwwCGub.t",
"CNOOPPPPPPPPPPPPPPPPPPPPPPPPPPPPPPPPPPPPPPPPPPPPPPPPPPPPPPPPPPPPPPPPPPPPPPPPPPPPPPPPPPPPPPPPPPPPPPPPPPPPPPPPPPPPPPPPPPPPPPPPPPPPPPPPPPPPPPPPPPPPPPPPPPPPPPPPPPPPPOOF"
};
